<svg xmlns="http://www.w3.org/2000/svg" width="1366" height="1047.443" viewBox="0 0 1366 1047.443">
  <g id="Grupo_95" data-name="Grupo 95" transform="translate(0 -6339.557)">
    <g id="Grupo_94" data-name="Grupo 94">
      <rect id="Retângulo_84" data-name="Retângulo 84" width="1366" height="1047" transform="translate(0 6340)" fill="#f9fafe"/>
      <g id="Grupo_79" data-name="Grupo 79" transform="translate(21.448)">
        <path id="Caminho_163" data-name="Caminho 163" d="M2617.552,7119.469l-109.85,109.85,109.85,109.85Z" transform="translate(-1437 -249)" fill="#e9edfe"/>
        <path id="Caminho_164" data-name="Caminho 164" d="M2617.552,7119.469l-109.85,109.85,109.85,109.85Z" transform="translate(-1412 -249)" fill="#d1d8f5"/>
      </g>
      <g id="Grupo_80" data-name="Grupo 80" transform="translate(1284.703 14211.637) rotate(180)">
        <path id="Caminho_163-2" data-name="Caminho 163" d="M2617.552,7119.469l-109.85,109.85,109.85,109.85Z" transform="translate(-1437 -249)" fill="#e9edfe"/>
        <path id="Caminho_164-2" data-name="Caminho 164" d="M2617.552,7119.469l-109.85,109.85,109.85,109.85Z" transform="translate(-1412 -249)" fill="#d1d8f5"/>
      </g>
      <g id="Grupo_81" data-name="Grupo 81" transform="translate(-5921.743 7482.446) rotate(-90)">
        <path id="Caminho_163-3" data-name="Caminho 163" d="M2566.506,7119.469l-58.8,58.8,58.8,58.8Z" transform="translate(-1437 -249)" fill="#e9edfe"/>
        <path id="Caminho_164-3" data-name="Caminho 164" d="M2566.506,7119.469l-58.8,58.8,58.8,58.8Z" transform="translate(-1423.617 -249)" fill="#d1d8f5"/>
      </g>
    </g>
  </g>
</svg>
