<svg xmlns="http://www.w3.org/2000/svg" xmlns:xlink="http://www.w3.org/1999/xlink" width="333.195" height="322.762" viewBox="0 0 333.195 322.762">
  <defs>
    <linearGradient id="linear-gradient" x1="0.502" y1="1.014" x2="0.502" y2="0.014" gradientUnits="objectBoundingBox">
      <stop offset="0" stop-color="gray" stop-opacity="0.251"/>
      <stop offset="0.54" stop-color="gray" stop-opacity="0.122"/>
      <stop offset="1" stop-color="gray" stop-opacity="0.102"/>
    </linearGradient>
    <linearGradient id="linear-gradient-2" x1="1.068" y1="0.668" x2="1.068" y2="-0.332" xlink:href="#linear-gradient"/>
    <linearGradient id="linear-gradient-3" x1="2.842" y1="0.652" x2="2.842" y2="-0.351" xlink:href="#linear-gradient"/>
    <linearGradient id="linear-gradient-4" x1="1.073" y1="0.27" x2="1.073" y2="-0.729" xlink:href="#linear-gradient"/>
    <linearGradient id="linear-gradient-5" x1="0.251" y1="0.451" x2="0.251" y2="-0.549" xlink:href="#linear-gradient"/>
    <linearGradient id="linear-gradient-6" x1="5.173" y1="0.029" x2="5.173" y2="-0.871" xlink:href="#linear-gradient"/>
    <linearGradient id="linear-gradient-7" x1="0.5" y1="1" x2="0.5" y2="0" xlink:href="#linear-gradient"/>
  </defs>
  <g id="undraw_agreement_aajr" transform="translate(0.145 0.192)">
    <g id="Grupo_61" data-name="Grupo 61" transform="translate(28.262 0)" opacity="0.5">
      <rect id="Retângulo_28" data-name="Retângulo 28" width="192.8" height="266.389" transform="translate(0 80.014) rotate(-24.52)" stroke="#000" stroke-width="0.289" fill="url(#linear-gradient)"/>
    </g>
    <rect id="Retângulo_29" data-name="Retângulo 29" width="187.894" height="260.502" transform="translate(31.305 80.781) rotate(-24.52)" fill="#fff" stroke="#000" stroke-width="0.289"/>
    <rect id="Retângulo_30" data-name="Retângulo 30" width="93.212" height="22.579" transform="translate(71.747 54.77) rotate(-24.52)" stroke="#000" stroke-width="0.289" fill="url(#linear-gradient-2)"/>
    <path id="Caminho_138" data-name="Caminho 138" d="M127.978,18.133a13.345,13.345,0,0,0,11.075,24.275,13.345,13.345,0,0,0-11.075-24.275Zm8.731,19.14a7.7,7.7,0,1,1,3.645-10.123,7.61,7.61,0,0,1-3.645,10.127Z" transform="translate(-22.988 -2.782)" stroke="#000" stroke-width="0.289" fill="url(#linear-gradient-3)"/>
    <rect id="Retângulo_31" data-name="Retângulo 31" width="91.248" height="21.586" transform="translate(72.645 54.378) rotate(-24.52)" fill="#6c63ff" stroke="#000" stroke-width="0.289"/>
    <path id="Caminho_139" data-name="Caminho 139" d="M128.271,18.822a12.756,12.756,0,1,0,16.9,6.312A12.756,12.756,0,0,0,128.271,18.822Zm8.348,18.3a7.358,7.358,0,1,1,3.641-9.751,7.358,7.358,0,0,1-3.641,9.751Z" transform="translate(-22.875 -2.575)" fill="#6c63ff" stroke="#000" stroke-width="0.289"/>
    <rect id="Retângulo_32" data-name="Retângulo 32" width="40.229" height="40.229" transform="translate(56.851 115.503) rotate(-24.52)" stroke="#000" stroke-width="0.289" fill="url(#linear-gradient-4)"/>
    <rect id="Retângulo_33" data-name="Retângulo 33" width="40.229" height="40.229" transform="translate(90.061 187.978) rotate(-24.52)" stroke="#000" stroke-width="0.289" fill="url(#linear-gradient-5)"/>
    <rect id="Retângulo_34" data-name="Retângulo 34" width="37.284" height="37.284" transform="translate(58.799 116.23) rotate(-24.52)" fill="#69f0ae" stroke="#000" stroke-width="0.289"/>
    <rect id="Retângulo_35" data-name="Retângulo 35" width="37.284" height="37.284" transform="translate(91.579 188.089) rotate(-24.52)" fill="#6c63ff" stroke="#000" stroke-width="0.289"/>
    <rect id="Retângulo_36" data-name="Retângulo 36" width="51.105" height="3.566" transform="translate(119.814 101.05) rotate(-24.52)" fill="#e0e0e0" stroke="#000" stroke-width="0.289"/>
    <rect id="Retângulo_37" data-name="Retângulo 37" width="84.382" height="3.566" transform="translate(122.037 105.916) rotate(-24.52)" fill="#e0e0e0" stroke="#000" stroke-width="0.289"/>
    <rect id="Retângulo_38" data-name="Retângulo 38" width="78.439" height="3.566" transform="translate(124.253 110.782) rotate(-24.52)" fill="#e0e0e0" stroke="#000" stroke-width="0.289"/>
    <rect id="Retângulo_39" data-name="Retângulo 39" width="51.105" height="3.566" transform="translate(152.596 172.912) rotate(-24.52)" fill="#e0e0e0" stroke="#000" stroke-width="0.289"/>
    <rect id="Retângulo_40" data-name="Retângulo 40" width="84.382" height="3.566" transform="translate(154.817 177.775) rotate(-24.52)" fill="#e0e0e0" stroke="#000" stroke-width="0.289"/>
    <rect id="Retângulo_41" data-name="Retângulo 41" width="78.439" height="3.566" transform="translate(157.035 182.645) rotate(-24.52)" fill="#e0e0e0" stroke="#000" stroke-width="0.289"/>
    <path id="Caminho_140" data-name="Caminho 140" d="M58.084,100.883l8.735,2.836,2.874-16.812,4.251,1.162-4.781,20.784L55.989,103.08Z" transform="translate(16.792 26.06)" stroke="#000" stroke-width="0.289" fill="url(#linear-gradient-6)"/>
    <path id="Caminho_141" data-name="Caminho 141" d="M58.878,100.292l7.6,2.464,2.5-14.619,3.694,1.012-4.157,18.072L57.054,102.2Z" transform="translate(17.111 26.429)" fill="#fff" stroke="#000" stroke-width="0.289"/>
    <path id="Caminho_142" data-name="Caminho 142" d="M84.252,155.916l7.6,2.464,2.5-14.619,3.694,1.012-4.157,18.072-11.455-5.018Z" transform="translate(24.721 43.111)" fill="#fff" stroke="#000" stroke-width="0.289"/>
    <rect id="Retângulo_42" data-name="Retângulo 42" width="119.214" height="39.737" transform="translate(146.332 250.199) rotate(-24.52)" fill="#e0e0e0" stroke="#000" stroke-width="0.289"/>
    <path id="Caminho_143" data-name="Caminho 143" d="M243.71,182.775c-4.168-1.189-8.434-.963-9.762,3.8-.448,1.606-.5,4.1-2.223,4.928-2.535,1.219-5.594-1.219-7.795-2.212a8.076,8.076,0,0,0-10.684,3.3,18.651,18.651,0,0,0-2.129,6.485,13.887,13.887,0,0,1-.609,3.1c-.786,1.757-3.246,1.6-4.86,1.531a10.5,10.5,0,0,1-1.076-.079,9.529,9.529,0,0,0,1.806-6.068c-.105-3.562-2.419-7.46-6.463-7.023a6.7,6.7,0,0,0-5.767,7.415,9.089,9.089,0,0,0,4.819,6.771c-1.234.545-2.551.971-3.717,1.535a15.587,15.587,0,0,0-1.584.884c-3.525-1.7-8.156-2.02-11.327-.286-1.535.839-.414,3.333,1.129,2.487,2.415-1.32,5.078-.989,7.6-.15l.211.075a6.8,6.8,0,0,0-.658,1.019c-1.426,2.769,0,7.148,3.468,7.448,4.89.418,5.12-6.045,2.464-8.618-.113-.109-.226-.214-.346-.316,1.1-.53,2.287-.929,3.337-1.377a13.878,13.878,0,0,0,2.6-1.445l.188.049c3.736.846,9.566,1.11,10.909-3.416,1.151-3.927,1.26-12.267,7.467-11.5,2.532.312,4.608,2.257,7.016,2.961,2.156.643,4.65.67,6.418-.918,1.46-1.309,1.787-3.243,2.235-5.048a5.074,5.074,0,0,1,1.215-2.712c1.373-1.2,3.641-.493,5.173-.056C244.436,185.815,245.406,183.257,243.71,182.775ZM195.182,214.6c-.824.816-1.7.169-2.137-.685a2.685,2.685,0,0,1,.376-2.976,5.175,5.175,0,0,1,.357-.429c1.629,1.053,2.961,2.562,1.418,4.089Zm2.889-20.314a3.037,3.037,0,0,1,5.06.933,7.473,7.473,0,0,1-.85,7.11,5.74,5.74,0,0,1-.621.7,7.925,7.925,0,0,1-2.682-1.531c-2-1.806-3.134-5.142-.892-7.223Z" transform="translate(-4.64 46.761)" fill="#6c63ff" stroke="#000" stroke-width="0.289"/>
    <path id="Caminho_144" data-name="Caminho 144" d="M307.1,82.527,276.733,94.366a87.231,87.231,0,0,1-29.651-7.6,46.931,46.931,0,0,0-41.38.312c-29.719.711-46.075-3.1-54.8-6.7l2.3-4.725-30.78-12L45.469,29.165V170.521l26.931,12,14.446-34.654,31.724,14.671,6.09-15.476,20.829,15.457,1.418,1.193-1.952,2.028a10.18,10.18,0,0,0,0,14h0a9.269,9.269,0,0,0,13.467,0l-1.068,1.129a10.18,10.18,0,0,0,0,14h0a9.269,9.269,0,0,0,13.467,0l6.169-6.414h0l-4.236,4.4a10.18,10.18,0,0,0,0,14h0a9.269,9.269,0,0,0,13.467,0l6.09-6.331h0l-2.562,2.663a7.11,7.11,0,0,0,0,9.781,6.474,6.474,0,0,0,9.4,0l4.063-4.221c6.978,5.1,12.625,8.818,15.39,9.781,11.523,4,11.523-4.006,11.523-4.006,15.39,8,23.087-8,23.087-8,19.238,8,19.238-12,19.238-12,4.808,3.333,8.276,1.806,10.7-1.129a13.035,13.035,0,0,0,1.437-14.1l18.388-16.992,7.953,16.259,31.724-14.671L357.1,195.906l21.273-9.5V46.53Z" transform="translate(-45.469 0.872)" stroke="#000" stroke-width="0.289" fill="url(#linear-gradient-7)"/>
    <path id="Caminho_145" data-name="Caminho 145" d="M211.072,128.831,177.584,158.6l-26.043-48.37,59.531-14.882Z" transform="translate(45.449 28.59)" fill="#be7c5e" stroke="#000" stroke-width="0.289"/>
    <path id="Caminho_146" data-name="Caminho 146" d="M124.878,67.049s10.748,14.882,74.413,11.161L236.5,134.022l24.934,28.052a11.862,11.862,0,0,1,.293,15.563c-2.336,2.712-5.7,4.138-10.345,1.035,0,0,0,18.6-18.6,11.161,0,0-7.441,14.882-22.323,7.441,0,0,0,7.441-11.161,3.72s-70.7-52.087-70.7-52.087l-26.043-18.6Z" transform="translate(-28.348 12.235)" fill="#fda57d" stroke="#000" stroke-width="0.289"/>
    <path id="Caminho_147" data-name="Caminho 147" d="M245.085,84.027a86.583,86.583,0,0,1-31.976-7.219,46.7,46.7,0,0,0-44.631,2.885c-10.872,7.016-20.291,18.632-20.115,37.818,0,0,14.468,14.882,29.764-14.882h11.161s10.748,37.209,40.929,33.481,37.209-7.441,37.209-7.441Z" transform="translate(-14.611 13.863)" fill="#be7c5e" stroke="#000" stroke-width="0.289"/>
    <rect id="Retângulo_43" data-name="Retângulo 43" width="18.418" height="28.94" rx="6.427" transform="translate(125.678 164.243) rotate(45)" fill="#be7c5e" stroke="#000" stroke-width="0.289"/>
    <rect id="Retângulo_44" data-name="Retângulo 44" width="18.418" height="28.94" rx="6.427" transform="translate(113.686 150.188) rotate(45)" fill="#be7c5e" stroke="#000" stroke-width="0.289"/>
    <rect id="Retângulo_45" data-name="Retângulo 45" width="18.418" height="31.57" rx="6.427" transform="translate(142.418 173.542) rotate(45)" fill="#be7c5e" stroke="#000" stroke-width="0.289"/>
    <rect id="Retângulo_46" data-name="Retângulo 46" width="12.862" height="21.048" rx="4.488" transform="translate(153.376 188.634) rotate(45)" fill="#be7c5e" stroke="#000" stroke-width="0.289"/>
    <path id="Caminho_148" data-name="Caminho 148" d="M241.409,144.856l-33.484,14.882L174.437,77.884,204.2,66.722Z" transform="translate(52.316 20.006)" fill="#fff" stroke="#000" stroke-width="0.289"/>
    <path id="Caminho_149" data-name="Caminho 149" d="M31.327,130.547l33.484,14.882L98.3,63.574,68.532,52.409Z" transform="translate(9.395 15.713)" fill="#fff" stroke="#000" stroke-width="0.289"/>
    <path id="Caminho_150" data-name="Caminho 150" d="M2.7,26.65,77.116,60.134,28.75,171.756,2.7,160.595Z" transform="translate(0.811 7.988)" fill="#333" stroke="#000" stroke-width="0.289"/>
    <path id="Caminho_151" data-name="Caminho 151" d="M271.75,40.961,197.337,74.449l48.37,111.618,26.043-11.161Z" transform="translate(59.184 12.28)" fill="#4d8af0" stroke="#000" stroke-width="0.289"/>
  </g>
</svg>
