<svg xmlns="http://www.w3.org/2000/svg" xmlns:xlink="http://www.w3.org/1999/xlink" width="953" height="359" viewBox="0 0 953 359">
  <defs>
    <clipPath id="clip-path">
      <rect id="Retângulo_48" data-name="Retângulo 48" width="953" height="359" transform="translate(208 6908)" fill="#fff" stroke="#707070" stroke-width="1"/>
    </clipPath>
    <linearGradient id="linear-gradient" x1="0.5" y1="1" x2="0.5" gradientUnits="objectBoundingBox">
      <stop offset="0" stop-color="gray" stop-opacity="0.251"/>
      <stop offset="0.54" stop-color="gray" stop-opacity="0.122"/>
      <stop offset="1" stop-color="gray" stop-opacity="0.102"/>
    </linearGradient>
    <linearGradient id="linear-gradient-2" xlink:href="#linear-gradient"/>
    <linearGradient id="linear-gradient-3" xlink:href="#linear-gradient"/>
    <linearGradient id="linear-gradient-4" xlink:href="#linear-gradient"/>
  </defs>
  <g id="Grupo_de_máscara_7" data-name="Grupo de máscara 7" transform="translate(-208 -6908)" clip-path="url(#clip-path)">
    <g id="undraw_charts_jj6t" transform="translate(425.222 6908)">
      <rect id="Retângulo_49" data-name="Retângulo 49" width="518.556" height="359" fill="url(#linear-gradient)"/>
      <rect id="Retângulo_50" data-name="Retângulo 50" width="507.41" height="337.882" transform="translate(6.453 5.279)" fill="#fff"/>
      <rect id="Retângulo_51" data-name="Retângulo 51" width="507.41" height="33.436" transform="translate(6.453 5.279)" fill="#bdbdbd"/>
      <circle id="Elipse_62" data-name="Elipse 62" cx="8.212" cy="8.212" r="8.212" transform="translate(22.238 13.785)" fill="#ff5252"/>
      <circle id="Elipse_63" data-name="Elipse 63" cx="8.212" cy="8.212" r="8.212" transform="translate(45.755 13.785)" fill="#ff0"/>
      <circle id="Elipse_64" data-name="Elipse 64" cx="8.212" cy="8.212" r="8.212" transform="translate(69.272 13.785)" fill="#69f0ae"/>
      <rect id="Retângulo_52" data-name="Retângulo 52" width="86.23" height="9.972" transform="translate(53.967 73.325)" fill="#e0e0e0"/>
      <rect id="Retângulo_53" data-name="Retângulo 53" width="86.23" height="9.972" transform="translate(53.967 89.75)" fill="#e0e0e0"/>
      <rect id="Retângulo_54" data-name="Retângulo 54" width="143.717" height="9.972" transform="translate(53.967 106.175)" fill="#e0e0e0"/>
      <rect id="Retângulo_55" data-name="Retângulo 55" width="170.701" height="9.972" transform="translate(53.967 122.6)" fill="#e0e0e0"/>
      <rect id="Retângulo_56" data-name="Retângulo 56" width="25.81" height="120.84" transform="translate(61.007 184.779)" fill="#f5f5f5"/>
      <rect id="Retângulo_57" data-name="Retângulo 57" width="25.81" height="120.84" transform="translate(103.828 184.779)" fill="#f5f5f5"/>
      <rect id="Retângulo_58" data-name="Retângulo 58" width="25.81" height="120.84" transform="translate(146.65 184.779)" fill="#f5f5f5"/>
      <rect id="Retângulo_59" data-name="Retângulo 59" width="25.81" height="120.84" transform="translate(189.472 184.779)" fill="#f5f5f5"/>
      <rect id="Retângulo_60" data-name="Retângulo 60" width="25.81" height="60.42" transform="translate(61.007 245.199)" fill="#2196f3"/>
      <g id="Grupo_65" data-name="Grupo 65" opacity="0.4">
        <rect id="Retângulo_61" data-name="Retângulo 61" width="25.81" height="26.397" transform="translate(61.007 219.975)" fill="#2196f3"/>
      </g>
      <rect id="Retângulo_62" data-name="Retângulo 62" width="25.81" height="47.304" transform="translate(103.828 258.316)" fill="#69f0ae"/>
      <rect id="Retângulo_63" data-name="Retângulo 63" width="25.81" height="30.714" transform="translate(103.828 227.601)" fill="#69f0ae" opacity="0.4"/>
      <rect id="Retângulo_64" data-name="Retângulo 64" width="25.81" height="69.219" transform="translate(146.65 236.4)" fill="#6c63ff"/>
      <rect id="Retângulo_65" data-name="Retângulo 65" width="25.81" height="24.051" transform="translate(146.65 212.35)" fill="#6c63ff" opacity="0.4"/>
      <rect id="Retângulo_66" data-name="Retângulo 66" width="25.81" height="45.168" transform="translate(189.472 260.451)" fill="#ff0"/>
      <rect id="Retângulo_67" data-name="Retângulo 67" width="25.81" height="14.078" transform="translate(189.472 246.373)" fill="#ff0" opacity="0.4"/>
      <path id="Caminho_153" data-name="Caminho 153" d="M463.708,184.193h-.293V312.072h.305a63.94,63.94,0,0,0,0-127.879Z" transform="translate(-92.683 -84.471)" fill="url(#linear-gradient-2)"/>
      <path id="Caminho_154" data-name="Caminho 154" d="M403.288,227.173a63.969,63.969,0,0,0,60.127,84.9V257.084Z" transform="translate(-92.683 -84.471)" fill="url(#linear-gradient-3)"/>
      <path id="Caminho_155" data-name="Caminho 155" d="M463.415,184.193a63.939,63.939,0,0,0-60.127,42.98L463.4,257.09Z" transform="translate(-92.683 -84.471)" fill="url(#linear-gradient-4)"/>
      <path id="Caminho_156" data-name="Caminho 156" d="M463.708,187.126h-.293V309.139h.293a61.007,61.007,0,1,0,0-122.013Z" transform="translate(-92.683 -84.471)" fill="#6c63ff"/>
      <path id="Caminho_157" data-name="Caminho 157" d="M406.057,228.135a61.036,61.036,0,0,0,57.358,81V256.673Z" transform="translate(-92.683 -84.471)" fill="#2196f3"/>
      <path id="Caminho_158" data-name="Caminho 158" d="M463.415,187.126a61.007,61.007,0,0,0-57.358,41l57.358,28.544Z" transform="translate(-92.683 -84.471)" fill="#69f0ae"/>
      <rect id="Retângulo_68" data-name="Retângulo 68" width="7.626" height="8.212" transform="translate(307.379 240.507)" fill="#2196f3"/>
      <rect id="Retângulo_69" data-name="Retângulo 69" width="7.626" height="8.212" transform="translate(370.732 240.507)" fill="#7c4dff"/>
      <rect id="Retângulo_70" data-name="Retângulo 70" width="7.626" height="8.212" transform="translate(434.085 240.507)" fill="#69f0ae"/>
      <rect id="Retângulo_71" data-name="Retângulo 71" width="26.397" height="4.693" transform="translate(317.351 242.266)" fill="#f5f5f5"/>
      <rect id="Retângulo_72" data-name="Retângulo 72" width="26.397" height="4.693" transform="translate(381.291 242.266)" fill="#f5f5f5"/>
      <rect id="Retângulo_73" data-name="Retângulo 73" width="26.397" height="4.693" transform="translate(445.23 242.266)" fill="#f5f5f5"/>
    </g>
  </g>
</svg>
