<svg xmlns="http://www.w3.org/2000/svg" xmlns:xlink="http://www.w3.org/1999/xlink" width="513" height="322" viewBox="0 0 513 322">
  <defs>
    <clipPath id="clip-path">
      <rect id="Ret칙ngulo_5" data-name="Ret칙ngulo 5" width="513" height="322" transform="translate(157 1673)" fill="#fff" stroke="#707070" stroke-width="1"/>
    </clipPath>
    <linearGradient id="linear-gradient" x1="0.627" y1="0.5" x2="1.626" y2="0.5" gradientUnits="objectBoundingBox">
      <stop offset="0" stop-color="gray" stop-opacity="0.251"/>
      <stop offset="0.54" stop-color="gray" stop-opacity="0.122"/>
      <stop offset="1" stop-color="gray" stop-opacity="0.102"/>
    </linearGradient>
  </defs>
  <g id="Grupo_de_m치scara_1" data-name="Grupo de m치scara 1" transform="translate(-157 -1673)" clip-path="url(#clip-path)">
    <g id="undraw_visual_data_b1wx" transform="translate(184.831 1672.859)">
      <ellipse id="Elipse_1" data-name="Elipse 1" cx="26.284" cy="6.977" rx="26.284" ry="6.977" transform="translate(370.023 308.186)" fill="#6c63ff" opacity="0.1"/>
      <path id="Caminho_1" data-name="Caminho 1" d="M457.4,309.111c-10,8.3-24.23,11.729-37.992,13.9l-2.316.353a434.917,434.917,0,0,1-43.491,3.979c-7.8.378-15.606.645-23.409.883l-6.115.181q-11.91.353-23.865.694-11.7.333-23.409.624-14.99.365-29.98.608-11.7.185-23.409.255-14.994.086-29.98-.057-11.713-.119-23.409-.411-15-.386-29.98-1.129-10.168-.5-20.325-1.2l-3.084-.218c-29.064-2.094-58.649-5.852-84.083-17.729l-.686-.324c-.341-.16-.682-.32-1.023-.489a92.037,92.037,0,0,1-13.372-7.84c-7.52-5.363-13.729-11.91-17.01-19.676-5.142-12.181-2.423-25.873,3.45-37.783S38.6,221.073,46.23,209.857c2.234-3.285,4.353-6.694,6.324-10.189,12.32-21.918,18.431-47.282,5.515-68.4a93.873,93.873,0,0,0-5.515-7.8c-3.15-4.107-6.353-8.214-8.517-12.76-5.047-10.579-3.963-22.477-2.123-33.778,2.464-15.027,6.982-31.212,21.1-40.6,14.649-9.75,35.442-9.257,53.622-5.75,28.267,5.417,54.358,16.756,80.694,26.982s53.926,19.577,82.883,20.583a132.275,132.275,0,0,0,18.637-.678h0a118.2,118.2,0,0,0,24.279-5.113c11.4-3.754,21.766-9.4,29.454-17.249,16.489-16.776,47.475-18.045,69.816-7.914,21.318,9.667,35.1,30.127,34.086,50.563-1.158,22.748-18.193,41.45-33.8,60.633-1.893,2.324-3.762,4.657-5.581,7.006q-1.524,1.967-2.99,3.943h0c-1.713,2.324-3.368,4.661-4.928,7.027-7.975,12.127-13.614,26.694-8.123,39.787,3.08,7.331,8.957,12.924,16.041,17.807,15.873,10.936,37.783,18.3,47.639,33.606C473.235,280.753,470.089,298.564,457.4,309.111Z" transform="translate(-17.745 -23.733)" fill="#6c63ff" opacity="0.1"/>
      <g id="Grupo_6" data-name="Grupo 6" opacity="0.1">
        <path id="Caminho_2" data-name="Caminho 2" d="M245.878,249.34q.025.579.086,1.133,4.793-1.91,9.409-4.107a7.626,7.626,0,0,0,4.349-2.127c.9-.452,1.795-.924,2.682-1.4a11.015,11.015,0,0,0-.682-1.232c-1.729-2.731-4.357-4.439-7.253-4.345s-5.4,1.971-6.949,4.8a14.152,14.152,0,0,0-1.643,7.273Z" transform="translate(-17.745 -23.733)" fill="#3f3d56"/>
        <path id="Caminho_3" data-name="Caminho 3" d="M245.406,234.979a14.2,14.2,0,0,0,2.115,7.113c1.733,2.723,4.361,4.431,7.257,4.337.2,0,.411-.029.6-.045a7.626,7.626,0,0,0,4.349-2.127,10.46,10.46,0,0,0,2-2.62,14.711,14.711,0,0,0-.468-14.374c-1.733-2.731-4.361-4.439-7.257-4.345s-5.4,1.971-6.945,4.8a14.157,14.157,0,0,0-1.647,7.261Z" transform="translate(-17.745 -23.733)" fill="#3f3d56"/>
        <ellipse id="Elipse_2" data-name="Elipse 2" cx="8.982" cy="11.758" rx="8.982" ry="11.758" transform="matrix(0.999, -0.033, 0.033, 0.999, 226.81, 185.125)" fill="#3f3d56"/>
        <ellipse id="Elipse_3" data-name="Elipse 3" cx="8.982" cy="11.758" rx="8.982" ry="11.758" transform="matrix(0.999, -0.033, 0.033, 0.999, 226.34, 170.767)" fill="#3f3d56"/>
        <ellipse id="Elipse_4" data-name="Elipse 4" cx="8.982" cy="11.758" rx="8.982" ry="11.758" transform="matrix(0.999, -0.033, 0.033, 0.999, 225.869, 156.404)" fill="#3f3d56"/>
        <path id="Caminho_4" data-name="Caminho 4" d="M283.369,92.222a42.742,42.742,0,0,0,3.179-5.031l-23.713-3.1,25.511-.649a43.076,43.076,0,0,0-.3-34.086L254.412,68.23,285.213,44a43.019,43.019,0,1,0-69.45,50.456,43.187,43.187,0,0,0-4.645,8l31.134,14.9-33-9.881a43.039,43.039,0,0,0,8.259,40.144,43.015,43.015,0,1,0,67.581-2.238,43.027,43.027,0,0,0-1.721-53.158Z" transform="translate(-17.745 -23.733)" fill="#6c63ff"/>
        <path id="Caminho_5" data-name="Caminho 5" d="M207.434,121.323a42.818,42.818,0,0,0,10.074,26.284,43.015,43.015,0,1,0,67.581-2.226C290.613,137.882,207.278,116.5,207.434,121.323Z" transform="translate(-17.745 -23.733)" opacity="0.1"/>
      </g>
      <g id="Grupo_7" data-name="Grupo 7" opacity="0.1">
        <path id="Caminho_6" data-name="Caminho 6" d="M151.7,324.991a7.04,7.04,0,0,1-.062.821q-3.409-1.355-6.7-2.9a5.425,5.425,0,0,1-3.1-1.507q-.961-.489-1.91-.994a7.76,7.76,0,0,1,.485-.871,5.538,5.538,0,0,1,10.086.312A10.062,10.062,0,0,1,151.7,324.991Z" transform="translate(-17.745 -23.733)" fill="#3f3d56"/>
        <path id="Caminho_7" data-name="Caminho 7" d="M152.021,314.77a10.1,10.1,0,0,1-1.495,5.064,6.019,6.019,0,0,1-5.158,3.092l-.411-.033a5.425,5.425,0,0,1-3.1-1.507,7.391,7.391,0,0,1-1.425-1.864,10.485,10.485,0,0,1,.32-10.222,5.555,5.555,0,0,1,10.107.312A10.062,10.062,0,0,1,152.021,314.77Z" transform="translate(-17.745 -23.733)" fill="#3f3d56"/>
        <ellipse id="Elipse_5" data-name="Elipse 5" cx="8.366" cy="6.39" rx="8.366" ry="6.39" transform="translate(121.57 288.793) rotate(-88.19)" fill="#3f3d56"/>
        <ellipse id="Elipse_6" data-name="Elipse 6" cx="8.366" cy="6.39" rx="8.366" ry="6.39" transform="translate(121.889 278.573) rotate(-88.19)" fill="#3f3d56"/>
        <ellipse id="Elipse_7" data-name="Elipse 7" cx="8.366" cy="6.39" rx="8.366" ry="6.39" transform="translate(122.212 268.348) rotate(-88.19)" fill="#3f3d56"/>
        <path id="Caminho_8" data-name="Caminho 8" d="M124.9,213.213a31.135,31.135,0,0,1-2.271-3.577l16.871-2.242-18.156-.411a30.653,30.653,0,0,1,.181-24.263l23.955,13.4-21.939-17.228a30.612,30.612,0,1,1,49.454,35.836,30.567,30.567,0,0,1,3.314,5.692l-22.144,10.628,23.479-7.064a30.657,30.657,0,0,1-5.84,28.583,30.612,30.612,0,1,1-48.1-1.52,30.612,30.612,0,0,1,1.2-37.832Z" transform="translate(-17.745 -23.733)" fill="#6c63ff"/>
        <path id="Caminho_9" data-name="Caminho 9" d="M178.941,233.853a30.5,30.5,0,0,1-7.142,18.715,30.612,30.612,0,1,1-48.1-1.52C119.762,245.71,179.056,230.416,178.941,233.853Z" transform="translate(-17.745 -23.733)" opacity="0.1"/>
      </g>
      <g id="Grupo_8" data-name="Grupo 8" opacity="0.1">
        <path id="Caminho_10" data-name="Caminho 10" d="M365.571,271.583a7.965,7.965,0,0,1-.057.821q-3.413-1.355-6.7-2.9a5.445,5.445,0,0,1-3.1-1.507c-.637-.324-1.277-.657-1.91-.994a8.478,8.478,0,0,1,.485-.871,5.538,5.538,0,0,1,10.086.312,10.062,10.062,0,0,1,1.2,5.142Z" transform="translate(-17.745 -23.733)" fill="#3f3d56"/>
        <path id="Caminho_11" data-name="Caminho 11" d="M365.916,261.361a10.1,10.1,0,0,1-1.5,5.064,6.014,6.014,0,0,1-5.158,3.092l-.411-.033a5.445,5.445,0,0,1-3.1-1.507,7.524,7.524,0,0,1-1.425-1.865,10.485,10.485,0,0,1,.32-10.222,5.554,5.554,0,0,1,10.107.312,10.062,10.062,0,0,1,1.166,5.158Z" transform="translate(-17.745 -23.733)" fill="#3f3d56"/>
        <ellipse id="Elipse_8" data-name="Elipse 8" cx="8.366" cy="6.39" rx="8.366" ry="6.39" transform="translate(335.454 235.381) rotate(-88.19)" fill="#3f3d56"/>
        <ellipse id="Elipse_9" data-name="Elipse 9" cx="8.366" cy="6.39" rx="8.366" ry="6.39" transform="translate(335.778 225.161) rotate(-88.19)" fill="#3f3d56"/>
        <ellipse id="Elipse_10" data-name="Elipse 10" cx="8.366" cy="6.39" rx="8.366" ry="6.39" transform="translate(336.101 214.941) rotate(-88.19)" fill="#3f3d56"/>
        <path id="Caminho_12" data-name="Caminho 12" d="M338.766,159.8a30.21,30.21,0,0,1-2.267-3.577L353.369,154l-18.156-.439a30.678,30.678,0,0,1,.177-24.263l23.955,13.4-21.939-17.22a30.616,30.616,0,1,1,49.454,35.836,30.551,30.551,0,0,1,3.31,5.692L368.027,177.64l23.479-7.064a30.624,30.624,0,0,1-5.84,28.579,30.608,30.608,0,1,1-48.086-1.52,30.612,30.612,0,0,1,1.2-37.832Z" transform="translate(-17.745 -23.733)" fill="#6c63ff"/>
        <path id="Caminho_13" data-name="Caminho 13" d="M392.815,180.445a30.472,30.472,0,0,1-7.146,18.711,30.608,30.608,0,1,1-48.091-1.52C333.636,192.3,392.922,177,392.815,180.445Z" transform="translate(-17.745 -23.733)" opacity="0.1"/>
      </g>
      <ellipse id="Elipse_11" data-name="Elipse 11" cx="23.413" cy="4.501" rx="23.413" ry="4.501" transform="translate(56.054 303.874)" fill="#6c63ff"/>
      <ellipse id="Elipse_12" data-name="Elipse 12" cx="2.727" cy="3.569" rx="2.727" ry="3.569" transform="translate(76.349 302.893)" fill="#3f3d56"/>
      <ellipse id="Elipse_13" data-name="Elipse 13" cx="2.727" cy="3.569" rx="2.727" ry="3.569" transform="translate(76.349 298.531)" fill="#3f3d56"/>
      <ellipse id="Elipse_14" data-name="Elipse 14" cx="2.727" cy="3.569" rx="2.727" ry="3.569" transform="translate(76.349 294.17)" fill="#3f3d56"/>
      <ellipse id="Elipse_15" data-name="Elipse 15" cx="2.727" cy="3.569" rx="2.727" ry="3.569" transform="translate(76.349 289.809)" fill="#3f3d56"/>
      <ellipse id="Elipse_16" data-name="Elipse 16" cx="2.727" cy="3.569" rx="2.727" ry="3.569" transform="translate(76.349 285.447)" fill="#3f3d56"/>
      <ellipse id="Elipse_17" data-name="Elipse 17" cx="2.727" cy="3.569" rx="2.727" ry="3.569" transform="translate(76.349 281.086)" fill="#3f3d56"/>
      <ellipse id="Elipse_18" data-name="Elipse 18" cx="2.727" cy="3.569" rx="2.727" ry="3.569" transform="translate(76.349 276.724)" fill="#3f3d56"/>
      <path id="Caminho_14" data-name="Caminho 14" d="M107.027,274.178a13.276,13.276,0,0,0,1.014-1.495l-7.162-1.179,7.745.062a13.1,13.1,0,0,0,.25-10.349l-10.394,5.392,9.585-7.06A13.06,13.06,0,1,0,86.5,274.166a13.141,13.141,0,0,0-1.487,2.382l9.3,4.83-9.914-3.327a13.068,13.068,0,0,0,2.1,12.263,13.06,13.06,0,1,0,20.534,0,13.068,13.068,0,0,0,0-16.148Z" transform="translate(-17.745 -23.733)" fill="#6c63ff"/>
      <path id="Caminho_15" data-name="Caminho 15" d="M83.7,282.252a13.006,13.006,0,0,0,2.793,8.074,13.06,13.06,0,1,0,20.534,0C108.777,288.1,83.7,280.786,83.7,282.252Z" transform="translate(-17.745 -23.733)" opacity="0.1"/>
      <path id="Caminho_16" data-name="Caminho 16" d="M160.046,236.141v92.814q-10.168-.5-20.325-1.2l-3.084-.218v-91.4a3.622,3.622,0,0,1,3.622-3.622h16.164a3.622,3.622,0,0,1,3.622,3.622Z" transform="translate(-17.745 -23.733)" fill="#3f3d56"/>
      <path id="Caminho_17" data-name="Caminho 17" d="M190.026,330.109V174.128a3.622,3.622,0,0,1,3.622-3.622h16.164a3.622,3.622,0,0,1,3.622,3.622V330.515Z" transform="translate(-17.745 -23.733)" fill="#3f3d56"/>
      <path id="Caminho_18" data-name="Caminho 18" d="M243.414,330.6V206.572a3.622,3.622,0,0,1,3.622-3.622H263.2a3.622,3.622,0,0,1,3.622,3.622V330.33Z" transform="translate(-17.745 -23.733)" fill="#3f3d56"/>
      <path id="Caminho_19" data-name="Caminho 19" d="M320.211,114.58V329.1q-11.7.333-23.409.624V114.58a3.622,3.622,0,0,1,3.622-3.622h16.164A3.622,3.622,0,0,1,320.211,114.58Z" transform="translate(-17.745 -23.733)" fill="#3f3d56"/>
      <path id="Caminho_20" data-name="Caminho 20" d="M373.6,157.7V327.312c-7.8.378-15.606.645-23.409.883V157.7a3.622,3.622,0,0,1,3.622-3.622h16.164A3.622,3.622,0,0,1,373.6,157.7Z" transform="translate(-17.745 -23.733)" fill="#3f3d56"/>
      <path id="Caminho_21" data-name="Caminho 21" d="M130.8,158.28,184.19,98.732l53.388,29.98,53.388-91.992,53.388,43.943" fill="none" stroke="#3f3d56" stroke-linecap="round" stroke-miterlimit="10" stroke-width="2.875"/>
      <circle id="Elipse_19" data-name="Elipse 19" cx="11.499" cy="11.499" r="11.499" transform="translate(119.097 146.781)" fill="#6c63ff"/>
      <circle id="Elipse_20" data-name="Elipse 20" cx="11.499" cy="11.499" r="11.499" transform="translate(172.486 87.233)" fill="#6c63ff"/>
      <circle id="Elipse_21" data-name="Elipse 21" cx="11.499" cy="11.499" r="11.499" transform="translate(225.874 117.212)" fill="#6c63ff"/>
      <circle id="Elipse_22" data-name="Elipse 22" cx="11.499" cy="11.499" r="11.499" transform="translate(279.262 25.22)" fill="#6c63ff"/>
      <circle id="Elipse_23" data-name="Elipse 23" cx="11.499" cy="11.499" r="11.499" transform="translate(381.932 122.962)" fill="#6c63ff"/>
      <ellipse id="Elipse_24" data-name="Elipse 24" cx="7.671" cy="1.298" rx="7.671" ry="1.298" transform="translate(88.296 295.464)" fill="#6c63ff" opacity="0.1"/>
      <path id="Caminho_22" data-name="Caminho 22" d="M108.563,314.47s4.374-.136,5.692-1.076,6.731-2.053,7.06-.554,6.571,7.491,1.643,7.532-11.479-.772-12.793-1.573S108.563,314.47,108.563,314.47Z" transform="translate(-17.745 -23.733)" fill="#a8a8a8"/>
      <path id="Caminho_23" data-name="Caminho 23" d="M123.036,319.846c-4.928.041-11.474-.768-12.793-1.569-1-.612-1.4-2.8-1.536-3.811h-.144s.275,3.528,1.593,4.329,7.852,1.614,12.793,1.573c1.425,0,1.918-.517,1.889-1.269C124.641,319.554,124.1,319.837,123.036,319.846Z" transform="translate(-17.745 -23.733)" opacity="0.2"/>
      <ellipse id="Elipse_25" data-name="Elipse 25" cx="14.09" cy="2.382" rx="14.09" ry="2.382" transform="translate(422.791 305.386)" fill="#6c63ff" opacity="0.1"/>
      <path id="Caminho_24" data-name="Caminho 24" d="M445.177,320.433s8.037-.246,10.46-1.971S468,314.679,468.6,317.443,480.68,331.2,471.6,331.275s-21.084-1.413-23.5-2.875S445.177,320.433,445.177,320.433Z" transform="translate(-17.745 -23.733)" fill="#a8a8a8"/>
      <path id="Caminho_25" data-name="Caminho 25" d="M471.756,330.314c-9.076.074-21.084-1.413-23.5-2.875-1.84-1.121-2.575-5.146-2.821-6.982h-.267s.509,6.485,2.924,7.955,14.431,2.961,23.5,2.875c2.62,0,3.524-.953,3.474-2.333C474.7,329.776,473.7,330.3,471.756,330.314Z" transform="translate(-17.745 -23.733)" opacity="0.2"/>
      <path id="Caminho_26" data-name="Caminho 26" d="M366.659,165.245a3.7,3.7,0,0,0,.821,1.959,7.108,7.108,0,0,0,2.287,1.384,9.035,9.035,0,0,1,4.419,5.08c1.368,3.992,1.544,8.214,3.285,12.066s3.786,7.552,5.29,11.5a38.552,38.552,0,0,0,2.789,6.6,10.242,10.242,0,0,0,2.287,2.632c-.094,1.446-.131,2.875-.123,4.32a1.643,1.643,0,0,1,1.4.739,4.275,4.275,0,0,1,.616,1.54c.563,2.329-.131,4.809.374,7.15a36.37,36.37,0,0,1-1.232,19.565c-.563,1.593-1.269,6.867-.669,8.448,2.234-.226,4.214,1.146,6.3,2.053a8.673,8.673,0,0,1-.3,3.7,20.354,20.354,0,0,0-.735,6.8l.1,16.945a25.556,25.556,0,0,0,.567,6.407c.612,2.345,1.9,4.735,1.856,7.158-.111,5.216,2.353,10.185,2.156,15.359-.037.994-.172,1.979-.267,2.965a33.732,33.732,0,0,0,.2,7.881c.747,5.2,2.723,10.312,2.23,15.54-.033.353-.152.821-.485.957.411.464.846.924,1.29,1.363a1.171,1.171,0,0,1-.357.374,3.63,3.63,0,0,1-1.569.411,3.323,3.323,0,0,0-1.795.583,2.583,2.583,0,0,0-.747,1.372,3.7,3.7,0,0,0,.493,3.072,3.43,3.43,0,0,0,1.392,1.043c1.9.821,4.074.226,6.053-.374l7.754-2.349a2.612,2.612,0,0,0,1.261-.657,1.38,1.38,0,0,0,.308-.665,10.607,10.607,0,0,0,5.339-.616l7.754-2.353a2.575,2.575,0,0,0,1.261-.657,1.5,1.5,0,0,0,.316-1.232c.057-.025.115-.041.172-.07.591-.267,1.232-.788,1.088-1.417-.1-.411-.513-.649-.69-1.027a1.483,1.483,0,0,1,.287-1.45c.3-.411.715-.752.994-1.183.9-1.372.287-3.175-.049-4.78-.727-3.429-.053-7.01-.513-10.485-.156-1.17-.439-2.32-.665-3.483a71.157,71.157,0,0,1-.949-8.3c-.3-3.975-1.4-7.893-.768-11.836a45.959,45.959,0,0,0,.39-6.982,30.383,30.383,0,0,0-.193-4.452c-.16-1.1-.444-2.181-.567-3.285a29.782,29.782,0,0,1-.066-3.733,36.928,36.928,0,0,0-.764-8.263c-.821-3.733-2.366-7.306-3.023-11.047.222.049.444.1.657.156.025-2.875-2.493-9.125-3.425-11.852a3.447,3.447,0,0,1-.246-1.047,11.3,11.3,0,0,1,.259-1.409c.119-.994-.411-1.938-.554-2.932a6.878,6.878,0,0,1,.152-2.086c.661-3.676,1.483-7.322,2.3-10.965a11.679,11.679,0,0,0,.365-4.053,5.089,5.089,0,0,1,1.232-4.037,4.786,4.786,0,0,0,.912-1.146,2.908,2.908,0,0,0,.181-1.146,18.411,18.411,0,0,0-.739-4.99,12.914,12.914,0,0,0,1.2-4.439,72.091,72.091,0,0,0,.9-10.115,17.144,17.144,0,0,0-.739-5.339,21.189,21.189,0,0,0-1.4-3.1c-2.16-4.16-4.226-8.538-6.953-12.349-.821-1.158-.3-2.756-.246-4.185a11.95,11.95,0,0,0-1.29-4.965,8.149,8.149,0,0,0-1.544-2.657,2.509,2.509,0,0,0-1.807-.821,2.723,2.723,0,0,0-1.926,1.179,6.353,6.353,0,0,0-1.154,4.752,9.187,9.187,0,0,0,2.09,4.489,10.173,10.173,0,0,0,1.8,1.713q1.018,3.236,2.053,6.468a80.682,80.682,0,0,0,3.7,10.119,7.985,7.985,0,0,1,.994,2.936,8.627,8.627,0,0,1-.784,3.244,22.9,22.9,0,0,0-1.322,6.842,2.355,2.355,0,0,0-.345.189c-1.294.846-1.7,2.69-3.047,3.446a9.539,9.539,0,0,1-2.616.612.9.9,0,0,0-.238.066c-.033-.164-.066-.324-.086-.493a1.327,1.327,0,0,1,0-.316,13.794,13.794,0,0,0,5.1-4.862,4.447,4.447,0,0,0,.6-1.232,4.763,4.763,0,0,0,.062-1.6,25.563,25.563,0,0,0-.76-5.277,8.776,8.776,0,0,0-2.747-4.472c-.674-.542-1.45-.949-2.119-1.495-1.306-1.055-2.2-2.616-3.7-3.4a4.448,4.448,0,0,0-5.589,1.446,3.24,3.24,0,0,1-.821,1.043,8.436,8.436,0,0,0-.764.411,1.564,1.564,0,0,0-.329,1.618,16.843,16.843,0,0,1,.468,3.528A8.624,8.624,0,0,0,401,200.149c0,.764,0,1.528-.029,2.292a2.217,2.217,0,0,1-.029.435,2.961,2.961,0,0,1-1.232-.821c-.46-.575-.542-1.421-1.1-1.893a3.117,3.117,0,0,0-1.347-.493,8.365,8.365,0,0,1-3.285-1.556,6.6,6.6,0,0,0-2.435-1.511,54.034,54.034,0,0,0-5.339-8.148,15.872,15.872,0,0,1-1.4-1.918,26.66,26.66,0,0,1-1.7-5.039c-1.561-4.731-5.454-8.526-6.4-13.421-.345-1.774-1.47-3.318-2.242-4.953a6.324,6.324,0,0,0-2.14-2.9,3.642,3.642,0,0,0-4.316.661A5.187,5.187,0,0,0,366.659,165.245Zm48.76,166.2a3.631,3.631,0,0,1-1.569.411,7.574,7.574,0,0,0-.821.131c-.1-.862-.16-1.737-.226-2.587-.218-2.789-.653-5.557-1.084-8.32-.452-2.875-.665-6.021-1.643-8.78-1.573-4.493-3.166-9.121-2.965-13.881.045-1.08.181-2.152.238-3.228.131-2.665-.242-5.388.411-7.98.292-1.179.789-2.3.977-3.5a16.63,16.63,0,0,0,.041-3.261,43.339,43.339,0,0,1,.932-11.232,7.927,7.927,0,0,1,1.232,3.524l1.54,8.353c.916,4.957,1.725,10.214,4.152,14.624a8.708,8.708,0,0,0-.115,4.8c.242.657.641,1.232.887,1.9a14.141,14.141,0,0,1,.476,3.491c.267,2.464,1.285,4.887.538,7.265a35.441,35.441,0,0,0-1.491,7.54,18.36,18.36,0,0,1-.246,2.123c-.131.632-.345,1.232-.464,1.881a6.23,6.23,0,0,0,.119,2.739,5.593,5.593,0,0,1,.337,1.54c0,.526-.645.9-1.162.986.152.2.316.386.485.571A1.8,1.8,0,0,1,415.419,331.443Z" transform="translate(-17.745 -23.733)" fill="url(#linear-gradient)"/>
      <path id="Caminho_27" data-name="Caminho 27" d="M399.2,336.183a3.322,3.322,0,0,0-1.795.583,2.529,2.529,0,0,0-.747,1.363,3.647,3.647,0,0,0,.493,3.047,3.421,3.421,0,0,0,1.392,1.039c1.9.821,4.074.222,6.053-.374l7.754-2.333a2.6,2.6,0,0,0,1.261-.653,1.713,1.713,0,0,0,.033-2A3.877,3.877,0,0,0,412,335.55a18.4,18.4,0,0,0-7.778-1.491c-.986,0-1.959-.238-2.628.522-.353.411-.287.85-.821,1.2A3.7,3.7,0,0,1,399.2,336.183Z" transform="translate(-17.745 -23.733)" fill="#3f3d56"/>
      <path id="Caminho_28" data-name="Caminho 28" d="M413.85,331.92a3.355,3.355,0,0,0-1.795.583,2.546,2.546,0,0,0-.747,1.363,3.659,3.659,0,0,0,.493,3.051,3.45,3.45,0,0,0,1.392,1.035c1.9.821,4.074.226,6.053-.37L427,335.246a2.6,2.6,0,0,0,1.261-.653,1.708,1.708,0,0,0,.033-1.992,3.89,3.89,0,0,0-1.643-1.31,18.431,18.431,0,0,0-7.782-1.495c-.986,0-1.955-.234-2.628.526-.353.411-.287.846-.821,1.2a3.573,3.573,0,0,1-1.569.4Z" transform="translate(-17.745 -23.733)" fill="#3f3d56"/>
      <path id="Caminho_29" data-name="Caminho 29" d="M407.111,247.771a95.519,95.519,0,0,1,13.754-.386,2.735,2.735,0,0,1,.891.14c1.01.411,1.166,1.733,1.261,2.813.411,4.386,2.324,8.472,3.285,12.768a36.479,36.479,0,0,1,.764,8.214,29.46,29.46,0,0,0,.066,3.7c.123,1.1.411,2.172.567,3.265a29.98,29.98,0,0,1,.193,4.423,45.378,45.378,0,0,1-.39,6.928c-.632,3.914.472,7.8.768,11.762a70.208,70.208,0,0,0,.932,8.259c.226,1.154.509,2.3.665,3.458.46,3.454-.214,7.01.513,10.419.337,1.593.945,3.384.049,4.747-.279.411-.69.76-.994,1.175a1.466,1.466,0,0,0-.287,1.441c.177.374.587.62.69,1.018.16.628-.5,1.142-1.088,1.409a11.339,11.339,0,0,1-13.207-3.261c.517-.082,1.15-.456,1.162-.982a5.543,5.543,0,0,0-.337-1.528,6.16,6.16,0,0,1-.119-2.719c.119-.632.333-1.232.464-1.869a18.144,18.144,0,0,0,.246-2.111,35,35,0,0,1,1.491-7.491c.747-2.361-.271-4.752-.538-7.216a14.172,14.172,0,0,0-.476-3.47c-.246-.649-.645-1.232-.887-1.881a8.605,8.605,0,0,1,.115-4.776c-2.427-4.382-3.236-9.606-4.152-14.53l-1.54-8.3a8.155,8.155,0,0,0-1.232-3.5,42.778,42.778,0,0,0-.932,11.158,16.429,16.429,0,0,1-.041,3.24c-.189,1.191-.686,2.312-.977,3.478-.637,2.575-.263,5.277-.411,7.926-.058,1.072-.193,2.136-.238,3.207-.2,4.731,1.392,9.331,2.965,13.795.965,2.739,1.179,5.852,1.643,8.719.411,2.747.867,5.495,1.084,8.267.2,2.546.292,5.3,1.877,7.3A13.453,13.453,0,0,1,410.068,339a8.567,8.567,0,0,1-5.717-1.109,17.984,17.984,0,0,1-4.517-3.84c.333-.115.452-.6.485-.949.493-5.2-1.483-10.267-2.23-15.442a33.263,33.263,0,0,1-.2-7.828c.094-.982.23-1.963.267-2.949.2-5.138-2.279-10.086-2.189-15.228.041-2.411-1.232-4.784-1.856-7.113a25.743,25.743,0,0,1-.567-6.366l-.1-16.838a20.813,20.813,0,0,1,.735-6.756c.9-2.587-.131-5.557-.287-8.292A34.176,34.176,0,0,0,407.111,247.771Z" transform="translate(-17.745 -23.733)" fill="#696791"/>
      <path id="Caminho_30" data-name="Caminho 30" d="M392.47,199.393a53.658,53.658,0,0,0-6.288-9.926,15.739,15.739,0,0,1-1.4-1.906,26.445,26.445,0,0,1-1.7-5.006c-1.561-4.7-5.454-8.472-6.4-13.331-.345-1.766-1.47-3.285-2.242-4.928a6.221,6.221,0,0,0-2.14-2.875,3.647,3.647,0,0,0-4.316.657,5.129,5.129,0,0,0-1.322,4.333,3.668,3.668,0,0,0,.821,1.947,7.161,7.161,0,0,0,2.288,1.376,8.986,8.986,0,0,1,4.419,5.047c1.368,3.963,1.544,8.16,3.285,11.988s3.786,7.5,5.29,11.413a39.353,39.353,0,0,0,2.789,6.571,8.088,8.088,0,0,0,5.569,4.082,13.737,13.737,0,0,1,.669-4.386C392.3,202.831,393.214,200.925,392.47,199.393Z" transform="translate(-17.745 -23.733)" fill="#a0616a"/>
      <path id="Caminho_31" data-name="Caminho 31" d="M417.9,202.465a22.693,22.693,0,0,1,1.335-8.534,8.844,8.844,0,0,0,.784-3.224,7.906,7.906,0,0,0-.994-2.92,74.9,74.9,0,0,1-3.7-10.049l-2.053-6.427a9.983,9.983,0,0,1-1.8-1.7,9.076,9.076,0,0,1-2.09-4.46,6.263,6.263,0,0,1,1.154-4.715,2.731,2.731,0,0,1,1.926-1.175,2.522,2.522,0,0,1,1.807.821,8.094,8.094,0,0,1,1.544,2.637,11.821,11.821,0,0,1,1.29,4.928c-.058,1.421-.587,3.006.246,4.16,2.727,3.786,4.793,8.136,6.953,12.271a20.766,20.766,0,0,1,1.4,3.076,16.916,16.916,0,0,1,.739,5.314,73.753,73.753,0,0,1-.9,10.049c-.292,2.09-.674,4.366-2.255,5.75A32.555,32.555,0,0,0,417.9,202.465Z" transform="translate(-17.745 -23.733)" fill="#a0616a"/>
      <circle id="Elipse_26" data-name="Elipse 26" cx="8.522" cy="8.522" r="8.522" transform="translate(381.181 163.29)" fill="#a0616a"/>
      <path id="Caminho_32" data-name="Caminho 32" d="M411.575,204.519a11.4,11.4,0,0,0,1.836,4.251c.485.821,1.1,1.7,2.053,1.786a41.391,41.391,0,0,1-7.741,3.113,8.757,8.757,0,0,1-2.825.456,6.912,6.912,0,0,1-2.353-.6,11.7,11.7,0,0,1-6.649-7.77,15.444,15.444,0,0,0,3.166-.242,2.329,2.329,0,0,0,1.552-.764,2.464,2.464,0,0,0,.32-1.372c.041-1.421.045-2.846,0-4.267a16.838,16.838,0,0,1,6.193.764c.821.267,1.643.587,2.464.8.517.131,1.943,0,2.324.3C412.544,201.389,411.431,203.471,411.575,204.519Z" transform="translate(-17.745 -23.733)" fill="#a0616a"/>
      <path id="Caminho_33" data-name="Caminho 33" d="M407.83,209.7a5.363,5.363,0,0,1,4.082-4.768,9.535,9.535,0,0,0,2.616-.608c1.347-.752,1.754-2.583,3.047-3.425a3.6,3.6,0,0,1,4.255.69,9.136,9.136,0,0,1,2.156,4.062,20.562,20.562,0,0,1,1.1,6.222,2.875,2.875,0,0,1-.181,1.138,4.749,4.749,0,0,1-.912,1.138,5.035,5.035,0,0,0-1.232,4.012,11.5,11.5,0,0,1-.366,4.025c-.821,3.622-1.643,7.24-2.3,10.9a6.762,6.762,0,0,0-.152,2.053c.127.99.674,1.926.554,2.916a11.041,11.041,0,0,0-.259,1.4,3.4,3.4,0,0,0,.246,1.039c.932,2.706,3.45,8.908,3.425,11.774-4.374-1.121-10.821-1.372-15.339-1.392a34.132,34.132,0,0,0-3.721.164c-2.969.32-6.008,1.187-8.887.386-2.674-.743-5.039-2.875-7.8-2.608-.6-1.569.107-6.8.669-8.39a35.91,35.91,0,0,0,1.232-19.438c-.505-2.324.189-4.793-.374-7.1a4.233,4.233,0,0,0-.616-1.532,1.643,1.643,0,0,0-1.4-.735,52.314,52.314,0,0,1,1.027-11.06c.271-1.294.821-2.821,2.148-3.043,1.175-.2,2.16.793,3.1,1.52a8.341,8.341,0,0,0,3.285,1.544,3.117,3.117,0,0,1,1.347.493c.563.468.645,1.31,1.1,1.881.821,1.023,2.657.936,3.24,2.115a8.059,8.059,0,0,1,.308,1.076,3.951,3.951,0,0,0,1.355,1.749,7.622,7.622,0,0,0,3.24,1.807Z" transform="translate(-17.745 -23.733)" fill="#f86d70"/>
      <path id="Caminho_34" data-name="Caminho 34" d="M400.524,186.486a1.557,1.557,0,0,1,.329-1.61c.226-.177.522-.242.764-.411a3.286,3.286,0,0,0,.821-1.039,4.46,4.46,0,0,1,5.581-1.417c1.483.776,2.378,2.329,3.7,3.376.669.542,1.446.945,2.119,1.487a8.71,8.71,0,0,1,2.747,4.444,25.215,25.215,0,0,1,.76,5.24,4.715,4.715,0,0,1-.062,1.593,4.46,4.46,0,0,1-.6,1.232,13.721,13.721,0,0,1-5.38,4.977,8.315,8.315,0,0,1-7.17.123,1.232,1.232,0,0,1-.55-.439,1.581,1.581,0,0,1-.086-.949,6.493,6.493,0,0,0-.715-3.635c-.411-.821-1.027-1.528-1.355-2.378a8.283,8.283,0,0,1-.386-2.949C401,191.549,401.173,188.974,400.524,186.486Z" transform="translate(-17.745 -23.733)" fill="#2d293d"/>
    </g>
  </g>
</svg>
