<svg xmlns="http://www.w3.org/2000/svg" width="372" height="273.943" viewBox="0 0 372 273.943">
  <g id="undraw_android_jr64" transform="translate(0.003 0.007)">
    <path id="Caminho_35" data-name="Caminho 35" d="M21.463,161.4c5.886,25.159,18.347,46.907,38.041,57.449,40.926,21.908,133.225,10.61,202.112-2.374a157.74,157.74,0,0,0,89.7-51.278Z" transform="translate(-17.445 -15.614)" fill="#6c63ff" opacity="0.1"/>
    <path id="Caminho_36" data-name="Caminho 36" d="M382.7,42.981H344.9a3.267,3.267,0,1,1,0-6.534h6.534a3.267,3.267,0,1,1,0-6.534h-4.666a3.267,3.267,0,0,1,0-6.534h19.727a52.2,52.2,0,0,0-15.387-4.242c-53.791-6.91-73-2.34-79.771,2.374a75.33,75.33,0,0,1-27.648,12.118C210.5,40.475,148.433,48.715,92.177,30.991c-27.96-8.816-48.742,6.076-61.2,30.951H389.257a58.379,58.379,0,0,0-4.438-19.748,3.248,3.248,0,0,1-2.123.787Z" transform="translate(-17.445 -15.614)" fill="#6c63ff" opacity="0.1"/>
    <path id="Caminho_37" data-name="Caminho 37" d="M18.256,108.894a166.506,166.506,0,0,0,1.465,43.893l331.845,12.135a155.976,155.976,0,0,0,23.057-35.162ZM149.5,140.207H142.97a3.267,3.267,0,1,1,0,6.534h-37.8a3.267,3.267,0,1,1,0-6.534h6.534a3.267,3.267,0,1,1,0-6.534h-4.666a3.267,3.267,0,1,1,0-6.534h37.8a3.267,3.267,0,0,1,0,6.534H149.5a3.267,3.267,0,1,1,0,6.534Z" transform="translate(-17.445 -15.614)" fill="#6c63ff" opacity="0.1"/>
    <path id="Caminho_38" data-name="Caminho 38" d="M389.274,62.166l-362.3,8.816a144.687,144.687,0,0,0-8.667,37.41H382.926a154.773,154.773,0,0,0,5.266-23.847A113.005,113.005,0,0,0,389.274,62.166ZM91.862,91.041H85.328a3.267,3.267,0,0,1,0,6.534h-37.8a3.267,3.267,0,1,1,0-6.534h6.534a3.267,3.267,0,0,1,0-6.534H49.4a3.267,3.267,0,1,1,0-6.534H87.2a3.267,3.267,0,1,1,0,6.534h4.666a3.267,3.267,0,1,1,0,6.534Z" transform="translate(-17.445 -15.614)" fill="#6c63ff" opacity="0.1"/>
    <g id="Grupo_9" data-name="Grupo 9" opacity="0.1">
      <path id="Caminho_39" data-name="Caminho 39" d="M247.185,226.952s9.562-23.566,27.418-32.307a38.536,38.536,0,0,0,17.5-16.971,64.81,64.81,0,0,0,4.384-11.02" transform="translate(-17.445 -15.614)" fill="none" stroke="#535461" stroke-miterlimit="10" stroke-width="0.678"/>
      <path id="Caminho_40" data-name="Caminho 40" d="M307.706,161.077c-1.862,2.34-11.495,5.764-11.495,5.764s1.16-10.172,3.021-12.495a5.425,5.425,0,0,1,8.477,6.741Z" transform="translate(-17.445 -15.614)" fill="#6c63ff"/>
      <path id="Caminho_41" data-name="Caminho 41" d="M304.4,179.611c-2.835.953-12.776-1.417-12.776-1.417s6.493-7.894,9.328-8.846a5.425,5.425,0,0,1,3.448,10.264Z" transform="translate(-17.445 -15.614)" fill="#6c63ff"/>
      <path id="Caminho_42" data-name="Caminho 42" d="M286.477,201.515c-2.926-.607-10.315-7.673-10.315-7.673s9.589-3.537,12.519-2.93a5.425,5.425,0,0,1-2.2,10.6Z" transform="translate(-17.445 -15.614)" fill="#6c63ff"/>
      <path id="Caminho_43" data-name="Caminho 43" d="M269.184,215.037c-2.987-.105-11.464-5.818-11.464-5.818s8.857-5.1,11.844-5a5.425,5.425,0,1,1-.38,10.82Z" transform="translate(-17.445 -15.614)" fill="#6c63ff"/>
      <path id="Caminho_44" data-name="Caminho 44" d="M282.367,171.571c.383,2.967,6.856,10.874,6.856,10.874s4.262-9.291,3.882-12.258a5.425,5.425,0,0,0-10.738,1.383Z" transform="translate(-17.445 -15.614)" fill="#6c63ff"/>
      <path id="Caminho_45" data-name="Caminho 45" d="M262.341,187.64c1.251,2.713,9.8,8.324,9.8,8.324s1.288-10.142.037-12.854a5.425,5.425,0,1,0-9.833,4.533Z" transform="translate(-17.445 -15.614)" fill="#6c63ff"/>
      <path id="Caminho_46" data-name="Caminho 46" d="M245.021,205.93c.773,2.889,8.25,9.86,8.25,9.86s2.984-9.775,2.207-12.664a5.425,5.425,0,0,0-10.457,2.8Z" transform="translate(-17.445 -15.614)" fill="#6c63ff"/>
      <path id="Caminho_47" data-name="Caminho 47" d="M307.706,161.077c-1.862,2.34-11.495,5.764-11.495,5.764s1.16-10.172,3.021-12.495a5.425,5.425,0,0,1,8.477,6.741Z" transform="translate(-17.445 -15.614)" opacity="0.25"/>
      <path id="Caminho_48" data-name="Caminho 48" d="M304.4,179.611c-2.835.953-12.776-1.417-12.776-1.417s6.493-7.894,9.328-8.846a5.425,5.425,0,0,1,3.448,10.264Z" transform="translate(-17.445 -15.614)" opacity="0.25"/>
      <path id="Caminho_49" data-name="Caminho 49" d="M286.477,201.515c-2.926-.607-10.315-7.673-10.315-7.673s9.589-3.537,12.519-2.93a5.425,5.425,0,0,1-2.2,10.6Z" transform="translate(-17.445 -15.614)" opacity="0.25"/>
      <path id="Caminho_50" data-name="Caminho 50" d="M269.184,215.037c-2.987-.105-11.464-5.818-11.464-5.818s8.857-5.1,11.844-5a5.425,5.425,0,1,1-.38,10.82Z" transform="translate(-17.445 -15.614)" opacity="0.25"/>
      <path id="Caminho_51" data-name="Caminho 51" d="M282.367,171.571c.383,2.967,6.856,10.874,6.856,10.874s4.262-9.291,3.882-12.258a5.425,5.425,0,0,0-10.738,1.383Z" transform="translate(-17.445 -15.614)" opacity="0.25"/>
      <path id="Caminho_52" data-name="Caminho 52" d="M262.341,187.64c1.251,2.713,9.8,8.324,9.8,8.324s1.288-10.142.037-12.854a5.425,5.425,0,1,0-9.833,4.533Z" transform="translate(-17.445 -15.614)" opacity="0.25"/>
      <path id="Caminho_53" data-name="Caminho 53" d="M245.021,205.93c.773,2.889,8.25,9.86,8.25,9.86s2.984-9.775,2.207-12.664a5.425,5.425,0,0,0-10.457,2.8Z" transform="translate(-17.445 -15.614)" opacity="0.25"/>
    </g>
    <g id="Grupo_10" data-name="Grupo 10" opacity="0.1">
      <path id="Caminho_54" data-name="Caminho 54" d="M240.4,192.5s1.207-25.4,15.153-39.573a38.536,38.536,0,0,0,10.85-21.819,64.811,64.811,0,0,0,.485-11.84" transform="translate(-17.445 -15.614)" fill="none" stroke="#535461" stroke-miterlimit="10" stroke-width="0.678"/>
      <path id="Caminho_55" data-name="Caminho 55" d="M275.667,110.28c-.98,2.824-8.935,9.243-8.935,9.243s-2.272-9.965-1.292-12.79a5.425,5.425,0,1,1,10.226,3.547Z" transform="translate(-17.445 -15.614)" fill="#6c63ff"/>
      <path id="Caminho_56" data-name="Caminho 56" d="M278.678,128.848c-2.374,1.838-12.525,2.9-12.525,2.9s3.509-9.6,5.866-11.44a5.425,5.425,0,1,1,6.659,8.538Z" transform="translate(-17.445 -15.614)" fill="#6c63ff"/>
      <path id="Caminho_57" data-name="Caminho 57" d="M269.031,155.472c-2.964.4-12.274-3.818-12.274-3.818s7.877-6.517,10.85-6.914a5.425,5.425,0,1,1,1.438,10.732Z" transform="translate(-17.445 -15.614)" fill="#6c63ff"/>
      <path id="Caminho_58" data-name="Caminho 58" d="M257.2,173.962c-2.855.892-12.746-1.7-12.746-1.7s6.659-7.755,9.514-8.646a5.425,5.425,0,0,1,3.231,10.335Z" transform="translate(-17.445 -15.614)" fill="#6c63ff"/>
      <path id="Caminho_59" data-name="Caminho 59" d="M255.224,128.584c1.356,2.672,10.077,7.985,10.077,7.985s.939-10.172-.4-12.851a5.425,5.425,0,0,0-9.674,4.866Z" transform="translate(-17.445 -15.614)" fill="#6c63ff"/>
      <path id="Caminho_60" data-name="Caminho 60" d="M241.661,150.386c2.082,2.146,12,4.6,12,4.6s-2.146-9.993-4.228-12.139a5.425,5.425,0,0,0-7.775,7.538Z" transform="translate(-17.445 -15.614)" fill="#6c63ff"/>
      <path id="Caminho_61" data-name="Caminho 61" d="M231.387,173.382c1.7,2.468,11.054,6.568,11.054,6.568s-.427-10.213-2.116-12.681a5.425,5.425,0,0,0-8.935,6.1Z" transform="translate(-17.445 -15.614)" fill="#6c63ff"/>
    </g>
    <path id="Caminho_62" data-name="Caminho 62" d="M119.079,278.654c13.332,4.483,29.6,1.756,44.724,2.072a15.416,15.416,0,0,1,5.924.946c1.661.773,2.479,2.034,3.618,3.1,4.238,4,12.922,5.283,20.514,4.6s14.553-2.923,21.7-4.632c12.383-2.957,26.539-4.3,38.753-1.078a10.093,10.093,0,0,0,3.5.519c2.679-.264,3.476-2.407,5.347-3.632,3.391-2.211,10.725-1.611,12.207-4.523.871-1.7-1.133-3.459-3.313-4.625-8.348-4.462-20.29-5.2-31.215-4.51s-21.667,2.587-32.649,2.594c-13.682,0-26.9-2.913-40.451-4.106-9.386-.827-19.629-.726-28.428,1.7C129.8,269.733,127.7,275.647,119.079,278.654Z" transform="translate(-17.445 -15.614)" fill="#6c63ff" opacity="0.1"/>
    <rect id="Retângulo_7" data-name="Retângulo 7" width="2.374" height="33.568" transform="translate(123.935 62.695)" fill="#535461"/>
    <rect id="Retângulo_8" data-name="Retângulo 8" width="2.374" height="18.988" transform="translate(123.935 107.792)" fill="#535461"/>
    <rect id="Retângulo_9" data-name="Retângulo 9" width="106.808" height="231.926" rx="15.97" transform="translate(125.63 29.805)" fill="#535461"/>
    <rect id="Retângulo_10" data-name="Retângulo 10" width="106.808" height="211.243" rx="15.97" transform="translate(125.63 40.655)" fill="#6c63ff"/>
    <rect id="Retângulo_11" data-name="Retângulo 11" width="17.632" height="2.374" rx="1.187" transform="translate(170.388 34.891)" fill="#eaeaf3"/>
    <circle id="Elipse_27" data-name="Elipse 27" cx="1.695" cy="1.695" r="1.695" transform="translate(192.428 34.552)" fill="#eaeaf3"/>
    <path id="Caminho_63" data-name="Caminho 63" d="M168.777,149.921v24.752a5.856,5.856,0,0,1-5.876,5.92c-3.269,0-6.442-2.648-6.442-5.92V149.921c0-3.228,3.164-5.876,6.442-5.876A5.9,5.9,0,0,1,168.777,149.921Zm2.309,33.548a6.31,6.31,0,0,0,6.324,6.324h4.252l.064,13.058c0,7.883,11.8,7.822,11.8,0V189.8h7.948v13.058c0,7.843,11.868,7.863,11.868,0V189.8h4.316a6.3,6.3,0,0,0,6.283-6.324V145.124H171.086Zm52.994-40.407H170.846c0-9.155,5.469-17.1,13.59-21.24l-4.069-7.544c-.6-1.048.919-1.7,1.431-.81l4.147,7.609a28.869,28.869,0,0,1,23.142,0l4.123-7.585a.823.823,0,1,1,1.431.81l-4.069,7.521C218.611,125.966,224.08,133.917,224.08,143.062ZM187.6,131.194a2.228,2.228,0,1,0,0,.007Zm24.234,0a2.237,2.237,0,1,0,0,.007Zm20.256,12.844a5.859,5.859,0,0,0-5.876,5.876v24.752a5.9,5.9,0,0,0,5.876,5.92c3.292,0,6.442-2.648,6.442-5.92V149.915c-.01-3.282-3.174-5.869-6.442-5.869Z" transform="translate(-17.445 -15.614)" fill="#fff"/>
    <rect id="Retângulo_12" data-name="Retângulo 12" width="22.04" height="1.017" transform="translate(153.943 193.089)" fill="#535461"/>
    <rect id="Retângulo_13" data-name="Retângulo 13" width="14.58" height="1.017" transform="translate(184.12 193.089)" fill="#535461"/>
    <rect id="Retângulo_14" data-name="Retângulo 14" width="14.58" height="1.017" transform="translate(134.616 193.089)" fill="#535461"/>
    <rect id="Retângulo_15" data-name="Retângulo 15" width="14.58" height="1.017" transform="translate(207.177 193.089)" fill="#535461"/>
  </g>
</svg>
