<svg xmlns="http://www.w3.org/2000/svg" xmlns:xlink="http://www.w3.org/1999/xlink" width="343" height="257" viewBox="0 0 343 257">
  <defs>
    <clipPath id="clip-path">
      <rect id="Retângulo_1" data-name="Retângulo 1" width="343" height="257" transform="translate(219 952)" fill="#fff" stroke="#707070" stroke-width="1"/>
    </clipPath>
    <linearGradient id="linear-gradient" x1="0.5" y1="1" x2="0.5" gradientUnits="objectBoundingBox">
      <stop offset="0" stop-color="gray" stop-opacity="0.251"/>
      <stop offset="0.54" stop-color="gray" stop-opacity="0.122"/>
      <stop offset="1" stop-color="gray" stop-opacity="0.102"/>
    </linearGradient>
    <linearGradient id="linear-gradient-3" x1="0.5" y1="1" x2="0.5" y2="0" xlink:href="#linear-gradient"/>
    <linearGradient id="linear-gradient-4" x1="0.5" y1="1" x2="0.5" y2="0" xlink:href="#linear-gradient"/>
    <linearGradient id="linear-gradient-9" x1="4.117" y1="-0.125" x2="4.117" y2="-1.122" xlink:href="#linear-gradient"/>
    <linearGradient id="linear-gradient-10" x1="0.499" y1="1" x2="0.499" y2="0" xlink:href="#linear-gradient"/>
    <linearGradient id="linear-gradient-11" x1="0.5" y1="1" x2="0.5" y2="0" xlink:href="#linear-gradient"/>
  </defs>
  <g id="Grupo_de_máscara_5" data-name="Grupo de máscara 5" transform="translate(-219 -952)" clip-path="url(#clip-path)">
    <g id="undraw_growing_rk7d" transform="translate(234.447 952)">
      <path id="Caminho_100" data-name="Caminho 100" d="M47.152,238.559v-31.5l30.781-31.507,27.58-20.128,28.78-30.2,33.978-13.564h43.568L247.814,67.9l31.178-38.508V238.559Z" fill="#eceff1" opacity="0.2"/>
      <g id="Grupo_60" data-name="Grupo 60" opacity="0.2">
        <line id="Linha_2" data-name="Linha 2" y2="31.503" transform="translate(47.968 201.753)" fill="#6c63ff"/>
        <line id="Linha_3" data-name="Linha 3" y2="2.167" transform="translate(47.968 201.753)" fill="none" stroke="blue" stroke-miterlimit="10" stroke-width="0.361"/>
        <line id="Linha_4" data-name="Linha 4" y2="21.349" transform="translate(47.968 207.8)" fill="none" stroke="blue" stroke-miterlimit="10" stroke-width="0.361" stroke-dasharray="10.75 10.75"/>
        <line id="Linha_5" data-name="Linha 5" y2="2.167" transform="translate(47.968 231.089)" fill="none" stroke="blue" stroke-miterlimit="10" stroke-width="0.361"/>
        <line id="Linha_6" data-name="Linha 6" y2="63.01" transform="translate(81.664 170.246)" fill="#6c63ff"/>
        <line id="Linha_7" data-name="Linha 7" y2="2.167" transform="translate(81.664 170.246)" fill="none" stroke="blue" stroke-miterlimit="10" stroke-width="0.361"/>
        <line id="Linha_8" data-name="Linha 8" y2="51.909" transform="translate(81.664 176.925)" fill="none" stroke="blue" stroke-miterlimit="10" stroke-width="0.361" stroke-dasharray="12.5 12.5"/>
        <line id="Linha_9" data-name="Linha 9" y2="2.167" transform="translate(81.664 231.089)" fill="none" stroke="blue" stroke-miterlimit="10" stroke-width="0.361"/>
        <line id="Linha_10" data-name="Linha 10" y2="83.142" transform="translate(113.489 150.114)" fill="#6c63ff"/>
        <line id="Linha_11" data-name="Linha 11" y2="2.167" transform="translate(113.489 150.114)" fill="none" stroke="blue" stroke-miterlimit="10" stroke-width="0.361"/>
        <line id="Linha_12" data-name="Linha 12" y2="72.583" transform="translate(113.489 156.432)" fill="none" stroke="blue" stroke-miterlimit="10" stroke-width="0.361" stroke-dasharray="11.48 11.48"/>
        <line id="Linha_13" data-name="Linha 13" y2="2.167" transform="translate(113.489 231.089)" fill="none" stroke="blue" stroke-miterlimit="10" stroke-width="0.361"/>
        <line id="Linha_14" data-name="Linha 14" y2="113.334" transform="translate(146.629 119.923)" fill="#6c63ff"/>
        <line id="Linha_15" data-name="Linha 15" y2="2.167" transform="translate(146.629 119.923)" fill="none" stroke="blue" stroke-miterlimit="10" stroke-width="0.361"/>
        <line id="Linha_16" data-name="Linha 16" y2="102.46" transform="translate(146.629 126.45)" fill="none" stroke="blue" stroke-miterlimit="10" stroke-width="0.361" stroke-dasharray="12.07 12.07"/>
        <line id="Linha_17" data-name="Linha 17" y2="2.167" transform="translate(146.629 231.089)" fill="none" stroke="blue" stroke-miterlimit="10" stroke-width="0.361"/>
        <line id="Linha_18" data-name="Linha 18" y2="126.898" transform="translate(180.559 106.358)" fill="#6c63ff"/>
        <line id="Linha_19" data-name="Linha 19" y2="2.167" transform="translate(180.559 106.358)" fill="none" stroke="blue" stroke-miterlimit="10" stroke-width="0.361"/>
        <line id="Linha_20" data-name="Linha 20" y2="116.223" transform="translate(180.559 112.752)" fill="none" stroke="blue" stroke-miterlimit="10" stroke-width="0.361" stroke-dasharray="11.7 11.7"/>
        <line id="Linha_21" data-name="Linha 21" y2="2.167" transform="translate(180.559 231.089)" fill="none" stroke="blue" stroke-miterlimit="10" stroke-width="0.361"/>
        <line id="Linha_22" data-name="Linha 22" y2="126.898" transform="translate(212.752 106.358)" fill="#6c63ff"/>
        <line id="Linha_23" data-name="Linha 23" y2="2.167" transform="translate(212.752 106.358)" fill="none" stroke="blue" stroke-miterlimit="10" stroke-width="0.361"/>
        <line id="Linha_24" data-name="Linha 24" y2="116.223" transform="translate(212.752 112.752)" fill="none" stroke="blue" stroke-miterlimit="10" stroke-width="0.361" stroke-dasharray="11.7 11.7"/>
        <line id="Linha_25" data-name="Linha 25" y2="2.167" transform="translate(212.752 231.089)" fill="none" stroke="blue" stroke-miterlimit="10" stroke-width="0.361"/>
        <line id="Linha_26" data-name="Linha 26" y2="170.658" transform="translate(246.427 62.598)" fill="#6c63ff"/>
        <line id="Linha_27" data-name="Linha 27" y2="2.167" transform="translate(246.427 62.598)" fill="none" stroke="blue" stroke-miterlimit="10" stroke-width="0.361"/>
        <line id="Linha_28" data-name="Linha 28" y2="159.926" transform="translate(246.427 69.032)" fill="none" stroke="blue" stroke-miterlimit="10" stroke-width="0.361" stroke-dasharray="11.81 11.81"/>
        <line id="Linha_29" data-name="Linha 29" y2="2.167" transform="translate(246.427 231.089)" fill="none" stroke="blue" stroke-miterlimit="10" stroke-width="0.361"/>
        <line id="Linha_30" data-name="Linha 30" y2="209.165" transform="translate(278.927 24.091)" fill="#6c63ff"/>
        <line id="Linha_31" data-name="Linha 31" y2="2.167" transform="translate(278.927 24.091)" fill="none" stroke="blue" stroke-miterlimit="10" stroke-width="0.361"/>
        <line id="Linha_32" data-name="Linha 32" y2="198.296" transform="translate(278.927 30.615)" fill="none" stroke="blue" stroke-miterlimit="10" stroke-width="0.361" stroke-dasharray="12.06 12.06"/>
        <line id="Linha_33" data-name="Linha 33" y2="2.167" transform="translate(278.927 231.089)" fill="none" stroke="blue" stroke-miterlimit="10" stroke-width="0.361"/>
      </g>
      <circle id="Elipse_43" data-name="Elipse 43" cx="8.316" cy="8.316" r="8.316" transform="translate(39.653 193.437)" fill="url(#linear-gradient)"/>
      <circle id="Elipse_44" data-name="Elipse 44" cx="8.316" cy="8.316" r="8.316" transform="translate(73.349 161.93)" fill="url(#linear-gradient)"/>
      <circle id="Elipse_45" data-name="Elipse 45" cx="8.316" cy="8.316" r="8.316" transform="translate(105.173 141.799)" fill="url(#linear-gradient-3)"/>
      <circle id="Elipse_46" data-name="Elipse 46" cx="8.316" cy="8.316" r="8.316" transform="translate(138.313 111.607)" fill="url(#linear-gradient-4)"/>
      <circle id="Elipse_47" data-name="Elipse 47" cx="8.316" cy="8.316" r="8.316" transform="translate(172.244 98.043)" fill="url(#linear-gradient)"/>
      <circle id="Elipse_48" data-name="Elipse 48" cx="8.316" cy="8.316" r="8.316" transform="translate(204.437 98.043)" fill="url(#linear-gradient)"/>
      <circle id="Elipse_49" data-name="Elipse 49" cx="8.316" cy="8.316" r="8.316" transform="translate(238.111 54.283)" fill="url(#linear-gradient-4)"/>
      <circle id="Elipse_50" data-name="Elipse 50" cx="8.316" cy="8.316" r="8.316" transform="translate(270.611 15.775)" fill="url(#linear-gradient-4)"/>
      <circle id="Elipse_51" data-name="Elipse 51" cx="6.564" cy="6.564" r="6.564" transform="translate(41.405 195.189)" fill="#6c63ff"/>
      <circle id="Elipse_52" data-name="Elipse 52" cx="6.564" cy="6.564" r="6.564" transform="translate(75.101 163.682)" fill="#6c63ff"/>
      <circle id="Elipse_53" data-name="Elipse 53" cx="6.564" cy="6.564" r="6.564" transform="translate(106.925 143.551)" fill="#6c63ff"/>
      <circle id="Elipse_54" data-name="Elipse 54" cx="6.564" cy="6.564" r="6.564" transform="translate(140.065 113.359)" fill="#6c63ff"/>
      <circle id="Elipse_55" data-name="Elipse 55" cx="6.564" cy="6.564" r="6.564" transform="translate(173.996 99.795)" fill="#6c63ff"/>
      <circle id="Elipse_56" data-name="Elipse 56" cx="6.564" cy="6.564" r="6.564" transform="translate(206.189 99.795)" fill="#6c63ff"/>
      <circle id="Elipse_57" data-name="Elipse 57" cx="6.564" cy="6.564" r="6.564" transform="translate(239.863 56.035)" fill="#6c63ff"/>
      <circle id="Elipse_58" data-name="Elipse 58" cx="6.564" cy="6.564" r="6.564" transform="translate(272.363 17.527)" fill="#6c63ff"/>
      <path id="Caminho_101" data-name="Caminho 101" d="M299.073,97.006c-1.344-.82-7.77,2.5-9.938,3.027-1.586.387-5.119-1.03-6.9-1.806l.033-.314a3.336,3.336,0,0,0-2.207-.831,8.338,8.338,0,0,0,1.73-5.216l2.167-.361s-3.71-6.719-7.557-2.471a1.806,1.806,0,0,0-.838-.874c-.7-.282-1.445.21-2.012.722s-1.134,1.138-1.889,1.145a.26.26,0,0,1-.159-.036.3.3,0,0,1-.087-.231,4.367,4.367,0,0,0-.571-1.839c-1.066.722-1.311,2.167-1.412,3.468a.466.466,0,0,0,.022.231.459.459,0,0,0,.224.191,2.583,2.583,0,0,0,2.167.311c.842-.361,1.246-1.362,2.073-1.745a1.665,1.665,0,0,1,1.445.047c-1.846,3.154.188,4.887,1.579,5.646a4.141,4.141,0,0,0,.249.661c-1.524-.538-3.974-.509-6.242,3.378l.694.144-6.589,10.812s-1.257,1.362-.784,2.218,2.619-.1,2.55-1.853c-.033-.777,1.445-3.085,3.067-5.419l-.773,1.615a16.316,16.316,0,0,0,1.665,1.084c-1.084,1.644-2.045,4.454,1.5,6.9l.943,1.712s.452-.22,1.109-.5l.224.318c.632.99.238.336.238.336l4.371,6.163s-5.664,4.844-5.35,8.308l-1.037.043a1.405,1.405,0,0,0-1.293,1.806s5,4.609,6.257,3.251-.961-2.149-.961-2.149l-.054-1.311-.094-.058c.661-1.6,4.577-8.536,5.169-9.555.813-1.4-.39-3.652-1.745-6.683l4.9-.177s.975,7.72,4.2,9.143l.058-.029-.592.979a1.405,1.405,0,0,0,.838,2.052s6.56-1.781,6.076-3.569-2.33-.329-2.33-.329l-1.138-.65-.152.076c-.665-.968-5.242-8.764-5.252-9.717s-4.96-2.12-8.5-2.467l-.426-2.037a7.014,7.014,0,0,0,1.517-.285S276.9,106,277.3,105.108s3.511.3,2.478-3.612l2.167-.524v-.087l5.888,2.167a4.7,4.7,0,0,0,4.335-.564l3.934-2.76C299.669,100.918,300.417,97.826,299.073,97.006Z" transform="translate(-60.687 -34.054)" fill="url(#linear-gradient-9)"/>
      <path id="Caminho_102" data-name="Caminho 102" d="M277.865,98.765a20.71,20.71,0,0,1,.722-3.016c.4-1.084,1.806.676,1.806.676l-.228,2.792Z" transform="translate(-60.687 -34.054)" fill="#f6b9ad"/>
      <circle id="Elipse_59" data-name="Elipse 59" cx="3.266" cy="3.266" r="3.266" transform="matrix(0.911, -0.413, 0.413, 0.911, 214.002, 58.369)" fill="#f6b9ad"/>
      <path id="Caminho_103" data-name="Caminho 103" d="M276.026,117.116l8.764-.314s.918,7.257,3.945,8.6l2.677-1.268s-4.725-7.7-5-9.23c-.22-1.214-10.075-3.172-10.711-2.113a9.6,9.6,0,0,0-.654,3.32.946.946,0,0,0,.983,1.008Z" transform="translate(-60.687 -34.054)" fill="#f6b9ad"/>
      <path id="Caminho_104" data-name="Caminho 104" d="M280.639,99.412a1.225,1.225,0,0,1,1.481-.4c1.629.722,5.057,2.124,6.6,1.752,2.037-.495,8.077-3.612,9.342-2.847,1.2.722.625,3.388-2.29,2.716a1.2,1.2,0,0,0-.957.2L292,102.8a5.386,5.386,0,0,1-4.963.643l-5.841-2.167a1.228,1.228,0,0,1-.564-1.878Z" transform="translate(-60.687 -34.054)" fill="#f6b9ad"/>
      <path id="Caminho_105" data-name="Caminho 105" d="M273.053,99.758l-6.939,11.382s-1.181,1.282-.722,2.084,2.464-.1,2.395-1.741,6.972-10.562,6.972-10.562Z" transform="translate(-60.687 -34.054)" fill="#f6b9ad"/>
      <path id="Caminho_106" data-name="Caminho 106" d="M273.671,114.945l5.671,7.994s-5.563,4.75-5.021,8.016l2.529,1.542s4.533-8.308,4.971-9.248c.52-1.116-2.89-10.162-4.111-10.115S273.671,114.945,273.671,114.945Z" transform="translate(-60.687 -34.054)" fill="#f6b9ad"/>
      <path id="Caminho_107" data-name="Caminho 107" d="M283.872,92.74s-4-7.225-7.868-1.326c-2.933,4.483,2.3,6.072,2.3,6.072l1.131-2.529-.889-1.607,2-1.315.051,1.232Z" transform="translate(-60.687 -34.054)" fill="#e96857"/>
      <path id="Caminho_108" data-name="Caminho 108" d="M276.908,90.67a2.066,2.066,0,0,0-.928-1.084c-.657-.267-1.376.2-1.889.686s-1.066,1.084-1.774,1.084a.246.246,0,0,1-.148-.033.282.282,0,0,1-.079-.217,4.107,4.107,0,0,0-.538-1.73c-1,.69-1.235,2.048-1.326,3.251a.441.441,0,0,0,.022.217.43.43,0,0,0,.21.177,2.5,2.5,0,0,0,2.052.293c.791-.329,1.174-1.279,1.947-1.64a1.571,1.571,0,0,1,1.557.152c.332.242.639.643,1.048.582C278.049,92.277,277.085,91.031,276.908,90.67Z" transform="translate(-60.687 -34.054)" fill="#e96857"/>
      <path id="Caminho_109" data-name="Caminho 109" d="M272.551,107.59s-4.761,4.306.318,7.8l.889,1.607s4.335-1.73,6-1.384l-2.243-7.4Z" transform="translate(-60.687 -34.054)" fill="#e96a59"/>
      <path id="Caminho_110" data-name="Caminho 110" d="M277.565,97.681c-1.431-.509-3.75-.509-5.917,3.161l1.658.361-3.428,6.719s5.093,3.9,9.558,2.489c0,0-2.218-4.021-1.842-4.859s3.3.278,2.33-3.385l2.037-.495.293-2.89a3.079,3.079,0,0,0-2.167-.777,5.455,5.455,0,0,1-2.521-.325Z" transform="translate(-60.687 -34.054)" fill="#76b6d7"/>
      <path id="Caminho_111" data-name="Caminho 111" d="M274.516,130.741l-1.181.047a1.322,1.322,0,0,0-1.214,1.694h0s4.7,4.335,5.881,3.052-.9-2.019-.9-2.019l-.051-1.232Z" transform="translate(-60.687 -34.054)" fill="#76b6d7"/>
      <path id="Caminho_112" data-name="Caminho 112" d="M288.839,125.283l-.574,1.026a1.322,1.322,0,0,0,.788,1.929h0s6.166-1.673,5.711-3.356-2.189-.307-2.189-.307l-1.084-.614Z" transform="translate(-60.687 -34.054)" fill="#76b6d7"/>
      <path id="Caminho_113" data-name="Caminho 113" d="M279.176,93.737A1.7,1.7,0,0,1,279.642,95c-.1.242-.47.061-.827-.4a1.705,1.705,0,0,1-.466-1.264C278.45,93.1,278.819,93.278,279.176,93.737Z" transform="translate(-60.687 -34.054)" fill="#f6b9ad"/>
      <line id="Linha_34" data-name="Linha 34" y2="257" transform="translate(13.423)" fill="none" stroke="#1c36ab" stroke-miterlimit="10" stroke-width="0.722"/>
      <line id="Linha_35" data-name="Linha 35" x2="312.106" transform="translate(0 243.237)" fill="none" stroke="#1c36ab" stroke-miterlimit="10" stroke-width="0.722"/>
      <path id="Caminho_114" data-name="Caminho 114" d="M104.855,278.873l-1.181-1.806,1.3-9.844a21.8,21.8,0,0,0-2.337-2.98,21.914,21.914,0,0,1-.361-3.688,50.015,50.015,0,0,0-1.622-6.936l2.048.56,2.977-7.225v-1.7l1.275-.849s-1.7-2.55-3.4,0a4.86,4.86,0,0,1,0,2.55c-.426.849-1.7,3.829-1.7,3.829h-1.084l.231-1.275H98.772c-.108-.152-.217-.3-.329-.426l1.7-3.829-.806-.625,2.922-3.656.426-7.655A3.463,3.463,0,0,0,104.83,230a.722.722,0,0,0-.907-.722c-3.67.939-2.933,2.785-2.933,2.785l-1.275,7.225-1.745,2.742a3.826,3.826,0,0,0-2.167-2.839l.961-1.2a7.723,7.723,0,0,0-4.234.206,4.556,4.556,0,0,0,0,8.453,3.814,3.814,0,0,0,1.68.275V246.5h.159c-.065.4-.126.842-.159,1.282h0c-.849,0-.849,4.7.426,5.527L94.21,258v2.55a2.977,2.977,0,0,0,2.55,2.128l1.275,5.953a2.211,2.211,0,0,0,1.5.043l.206,1.654s-3.829,2.977-3.829,7.225l-.141.278-.285-.278-2.55,2.128,3.4,4.248h3.4c.849-2.128-2.55-2.55-2.55-2.55v-2.185h0l3.782-4.49a7.355,7.355,0,0,0,.777,1.644l.033.311-.39-.079-1,3.164,1.936.657a7.08,7.08,0,0,0,6.087-.722C107.951,277.41,104.855,278.873,104.855,278.873Z" transform="translate(-60.687 -34.054)" fill="url(#linear-gradient-10)"/>
      <path id="Caminho_115" data-name="Caminho 115" d="M96.417,246.936s-.925,3.88,0,4.432l2.771-1.662L97.342,246.2Z" transform="translate(-60.687 -34.054)" fill="#f6b9ad"/>
      <path id="Caminho_116" data-name="Caminho 116" d="M108.265,246.1s-1.633-2.446-3.251,0a4.667,4.667,0,0,1,0,2.446c-.408.813-1.633,3.67-1.633,3.67H99.7v2.037l4.487,1.225,2.854-6.932v-1.633Z" transform="translate(-60.687 -34.054)" fill="#f6b9ad"/>
      <path id="Caminho_117" data-name="Caminho 117" d="M41.867,216.939l-.816,4.487-3.262-.816v-3.67Z" fill="#5989a1"/>
      <circle id="Elipse_60" data-name="Elipse 60" cx="3.67" cy="3.67" r="3.67" transform="translate(31.673 206.745)" fill="#f6b9ad"/>
      <path id="Caminho_118" data-name="Caminho 118" d="M95.214,244.061l3.251-4.078a7.405,7.405,0,0,0-4.06.2,4.367,4.367,0,0,0,0,8.1,3.656,3.656,0,0,0,1.611.264V246.1H94.791Z" transform="translate(-60.687 -34.054)" fill="#fccc63"/>
      <path id="Caminho_119" data-name="Caminho 119" d="M104.187,235.5l-.408,7.34-3.251,4.078-2.037-1.225,2.854-4.487,1.225-6.932s-.722-1.766,2.814-2.67a.694.694,0,0,1,.871.722A3.344,3.344,0,0,1,104.187,235.5Z" transform="translate(-60.687 -34.054)" fill="#f6b9ad"/>
      <path id="Caminho_120" data-name="Caminho 120" d="M100.5,266.407l2.1,2.529s-1.557,4.382.639,7.817l.094.907,1.691.361,1.329-10.042s-2.413-3.782-4.1-4.154Z" transform="translate(-60.687 -34.054)" fill="#b98b82"/>
      <path id="Caminho_121" data-name="Caminho 121" d="M105.119,277.428l1.141,1.756s2.969-1.412,3.378.744h0a6.788,6.788,0,0,1-5.838.722l-1.857-.632.965-3.034Z" transform="translate(-60.687 -34.054)" fill="#3d203c"/>
      <path id="Caminho_122" data-name="Caminho 122" d="M100.925,267.714l.408,3.251s-3.67,2.854-3.67,6.932l-.408.816,1.225,1.225L105,272.19s0-4.487-1.225-5.707Z" transform="translate(-60.687 -34.054)" fill="#f6b9ad"/>
      <path id="Caminho_123" data-name="Caminho 123" d="M98.87,279.483v2.1s3.251.408,2.446,2.446H98.064l-3.251-4.078,2.446-2.037Z" transform="translate(-60.687 -34.054)" fill="#3d203c"/>
      <path id="Caminho_124" data-name="Caminho 124" d="M105,267.313s-3.67,2.854-5.3,2.037l-1.225-5.707a2.853,2.853,0,0,1-2.446-2.037v-2.456l7.748,2.446S103.779,266.081,105,267.313Z" transform="translate(-60.687 -34.054)" fill="#3d203c"/>
      <path id="Caminho_125" data-name="Caminho 125" d="M101.738,246.914l-3.251-2.446s-1.633,4.895-2.446,4.895-.827,4.487.408,5.307l-.408,4.487,7.748,2.446s-1.225-8.157-3.67-11.01Z" transform="translate(-60.687 -34.054)" fill="#76b6d7"/>
      <path id="Caminho_126" data-name="Caminho 126" d="M163.845,178.7s-.513.235-.867-.535l-1.026.473-.531-1.156.643-.3-2.4-8.54s.061-1.893-1.322-2.189c0,0-.751-.278-3.688.766-1.232.437-2.214.816-2.948,1.109a6.037,6.037,0,0,1-2.073-4.237,3.251,3.251,0,0,0-.419-1.5l1.806-.542-.04-.087,5.288-2.023c.235.513,2.662-.3,3.2-1.163.246-.4-.155-.629-.657-.766a3.612,3.612,0,0,0-2.167.108l-6.369,2.3-.076-.163a1.886,1.886,0,0,1-.824.318l-.361-.249,2.417-3.858c.5.267,1.951-1.839,1.853-2.85-.043-.466-.5-.412-.986-.217a3.613,3.613,0,0,0-1.654,1.384l-3.013,4.591-.582-.426-.43,1.156a8.569,8.569,0,0,0-1.987-.834l-.86-1.857a3.1,3.1,0,0,0,.271-4.859,9.753,9.753,0,0,1,1.756-.527s-5.057-4.2-7.5,1.279v.155c-.1.047-.2.094-.275.123l-2.077.791a2.991,2.991,0,0,0-.441.2,2.814,2.814,0,0,0-.585.495,1.557,1.557,0,0,0-.325.426,1.084,1.084,0,0,0,.184,1.084,3.222,3.222,0,0,0,.874.722l.878.567a1.113,1.113,0,0,1,.578.654,3.84,3.84,0,0,0-.444-1.882,1.376,1.376,0,0,1-.145-.9,1.3,1.3,0,0,1,.722-.686,7.748,7.748,0,0,1,1.116-.47c.155,1.409.722,3.537,2.778,3.865l.65,1.409c-.39.6-.466,1.662.69,3.522l2.839,6.141.242.036a3.562,3.562,0,0,0,2.391,4.4l-1.29,10.761s-5.119,6.672-4.194,8.056h.3l-.329,1.051-1.178-.249-.527,2.485,6.907,1.467s.686-1.875-2.409-2.243c0,0-.553-.116-.361-.946l-.751-.159.437-1.405h0s4.414-4.822,5.339-8.98c.722-3.179,2.222-9.06,2.89-11.65l3.941-1.806s2.561,6.907,3.034,7.947l.13-.058.531,1.156-.769.361,1.066,2.308,6.412-2.955S166.551,177.138,163.845,178.7Z" transform="translate(-60.687 -34.054)" fill="url(#linear-gradient-11)"/>
      <rect id="Retângulo_25" data-name="Retângulo 25" width="1.658" height="1.658" transform="matrix(0.908, -0.419, 0.419, 0.908, 98.932, 143.9)" fill="#f6b9ad"/>
      <rect id="Retângulo_26" data-name="Retângulo 26" width="1.658" height="2.897" transform="translate(82.709 156.79) rotate(17.34)" fill="#f6b9ad"/>
      <circle id="Elipse_61" data-name="Elipse 61" cx="3.038" cy="3.038" r="3.038" transform="matrix(0.908, -0.419, 0.419, 0.908, 77.463, 119.749)" fill="#f6b9ad"/>
      <rect id="Retângulo_27" data-name="Retângulo 27" width="2.76" height="4.692" transform="matrix(0.908, -0.419, 0.419, 0.908, 80.07, 123.414)" fill="#f6b9ad"/>
      <path id="Caminho_127" data-name="Caminho 127" d="M149.912,160.861l6.636-2.381a3.533,3.533,0,0,1,2.1-.108c.491.134.881.361.643.748-.52.849-2.89,1.636-3.125,1.134l-5.816,2.225Z" transform="translate(-60.687 -34.054)" fill="#f6b9ad"/>
      <path id="Caminho_128" data-name="Caminho 128" d="M145.747,169.314s-1.235,3.912,2.814,4.783l8.023-3.7s2.5,6.748,2.966,7.752l2.258-1.04-2.33-8.348s.058-1.85-1.29-2.142c0,0-.722-.271-3.612.751s-4.378,1.712-4.378,1.712Z" transform="translate(-60.687 -34.054)" fill="#5f98be"/>
      <path id="Caminho_129" data-name="Caminho 129" d="M145.913,152.52s-4.934-4.111-7.326,1.25c0,0-.271,4.7,2.93,5.032a6.249,6.249,0,0,0-.4-2.854C140.52,154.7,143.674,152.943,145.913,152.52Z" transform="translate(-60.687 -34.054)" fill="#3d213c"/>
      <path id="Caminho_130" data-name="Caminho 130" d="M136.283,154.814a2.925,2.925,0,0,0-.43.191,2.748,2.748,0,0,0-.571.484,1.521,1.521,0,0,0-.318.419,1.084,1.084,0,0,0,.181,1.048,3.15,3.15,0,0,0,.853.722l.86.556a1.084,1.084,0,0,1,.567.639,3.784,3.784,0,0,0-.433-1.839,1.347,1.347,0,0,1-.145-.881,1.268,1.268,0,0,1,.7-.672,7.585,7.585,0,0,1,1.1-.462,2.463,2.463,0,0,0,.553-.224.683.683,0,0,0,.336-.47.513.513,0,0,0-.332-.527c-.26-.072-.643.173-.889.267Z" transform="translate(-60.687 -34.054)" fill="#3d213c"/>
      <path id="Caminho_131" data-name="Caminho 131" d="M162.7,178.067l-3.251,1.5,1.04,2.258,6.267-2.89s-.56-1.871-3.2-.361C163.549,178.587,163.047,178.811,162.7,178.067Z" transform="translate(-60.687 -34.054)" fill="#3d213c"/>
      <path id="Caminho_132" data-name="Caminho 132" d="M146.39,160.811s2.951.466,3.836-.249l.809,1.756-3.742,1.116Z" transform="translate(-60.687 -34.054)" fill="#76b6d7"/>
      <path id="Caminho_133" data-name="Caminho 133" d="M143.161,159.413s-2.854.4-.5,4.183l2.774,6.018s4.3.755,6.574-.9a6.071,6.071,0,0,1-2.33-4.4C149.641,161.6,145.512,159.239,143.161,159.413Z" transform="translate(-60.687 -34.054)" fill="#76b6d7"/>
      <path id="Caminho_134" data-name="Caminho 134" d="M148.106,173.176l-1.355,11.285s-5,6.5-4.1,7.875H144.7s4.317-4.7,5.22-8.778,3.161-12.643,3.161-12.643Z" transform="translate(-60.687 -34.054)" fill="#5f98be"/>
      <path id="Caminho_135" data-name="Caminho 135" d="M144.981,193.863l-3.511-.744-.517,2.431L147.705,197s.672-1.831-2.355-2.193C145.35,194.788,144.808,194.673,144.981,193.863Z" transform="translate(-60.687 -34.054)" fill="#3d213c"/>
      <path id="Caminho_136" data-name="Caminho 136" d="M146.8,161.11l3.869-5.9a3.533,3.533,0,0,1,1.615-1.351c.473-.191.918-.242.961.21.094.99-1.326,3.049-1.806,2.789l-3.305,5.274Z" transform="translate(-60.687 -34.054)" fill="#f6b9ad"/>
      <path id="Caminho_137" data-name="Caminho 137" d="M85.782,127.021l.661-1.784,2.893,2L86.852,128.5Z" fill="#76b6d7"/>
    </g>
  </g>
</svg>
