<svg id="undraw_checklist_7q37" xmlns="http://www.w3.org/2000/svg" xmlns:xlink="http://www.w3.org/1999/xlink" width="212.66" height="323" viewBox="0 0 212.66 323">
  <defs>
    <linearGradient id="linear-gradient" x1="0.5" y1="1" x2="0.5" gradientUnits="objectBoundingBox">
      <stop offset="0" stop-color="gray" stop-opacity="0.251"/>
      <stop offset="0.54" stop-color="gray" stop-opacity="0.122"/>
      <stop offset="1" stop-color="gray" stop-opacity="0.102"/>
    </linearGradient>
    <linearGradient id="linear-gradient-3" y1="0.5" x2="1" y2="0.5" gradientUnits="objectBoundingBox">
      <stop offset="0" stop-color="#dadada"/>
      <stop offset="1" stop-color="#fff"/>
    </linearGradient>
    <linearGradient id="linear-gradient-7" x1="0.5" y1="1" x2="0.5" y2="0" xlink:href="#linear-gradient"/>
  </defs>
  <path id="Caminho_64" data-name="Caminho 64" d="M212.661,158.688l-173.1,28.739v61.581l173.1-2.82Z" fill="url(#linear-gradient)"/>
  <path id="Caminho_65" data-name="Caminho 65" d="M41.553,187.912l167.328-27.888v82.335L41.553,247.671Z" fill="#6c63ff"/>
  <path id="Caminho_66" data-name="Caminho 66" d="M210.823,79.015l-120.131,34.2v35.522l120.131-25.761Z" fill="url(#linear-gradient)"/>
  <path id="Caminho_67" data-name="Caminho 67" d="M207.552,80.343l-114.206,33.2v33.2l114.206-26.559Z" fill="#fff"/>
  <path id="Caminho_68" data-name="Caminho 68" d="M231.48,133.341c0,4.935-2.391,9.521-5.312,10.236s-5.21-2.635-5.21-7.488,2.319-9.411,5.21-10.21S231.48,128.406,231.48,133.341Z" transform="translate(-119.544 -7.906)" fill="none" stroke="#dbdbdb" stroke-miterlimit="10" stroke-width="0.753"/>
  <path id="Caminho_69" data-name="Caminho 69" d="M194.274,102.92,121.731,122v-4.073l72.543-19.621Z" fill="#dbdbdb"/>
  <path id="Caminho_70" data-name="Caminho 70" d="M194.274,112.214,121.731,131.3v-4.073l72.543-19.617Z" fill="#dbdbdb"/>
  <path id="Caminho_71" data-name="Caminho 71" d="M194.3,222.742c0-9.355-4.205-16.365-9.295-15.668-4.988.685-8.96,8.538-8.96,17.554s3.972,16.048,8.96,15.7C190.111,239.976,194.3,232.1,194.3,222.742Z" transform="translate(-119.544 -7.906)" fill="#fff"/>
  <path id="Caminho_72" data-name="Caminho 72" d="M187.634,198.536,87.571,209.63v-6.215l100.062-12.3Z" fill="url(#linear-gradient-3)"/>
  <path id="Caminho_73" data-name="Caminho 73" d="M187.634,214.471,87.571,225.565V219.35l100.062-12.3Z" fill="url(#linear-gradient-3)"/>
  <path id="Caminho_74" data-name="Caminho 74" d="M208.241,277.313,90.026,275.924v36.019L209.57,323Z" fill="url(#linear-gradient)"/>
  <path id="Caminho_75" data-name="Caminho 75" d="M207.552,279.542,93.346,278.213v31.875l114.206,9.295Z" fill="#fff"/>
  <path id="Caminho_76" data-name="Caminho 76" d="M232.808,303.665c0,4.924-2.39,8.749-5.312,8.546s-5.206-4.269-5.206-9.1,2.319-8.659,5.21-8.549S232.808,298.741,232.808,303.665Z" transform="translate(-119.544 -7.906)" fill="none" stroke="#dbdbdb" stroke-miterlimit="10" stroke-width="0.753"/>
  <path id="Caminho_77" data-name="Caminho 77" d="M194.274,296.806l-70.183-3.362v-4.156l70.183,2.835Z" fill="#dbdbdb"/>
  <path id="Caminho_78" data-name="Caminho 78" d="M194.274,306.1l-70.183-3.362v-4.156l70.183,2.835Z" fill="#dbdbdb"/>
  <path id="Caminho_79" data-name="Caminho 79" d="M210.823,0,91.355,47.874v35.79l119.469-39.84Z" fill="url(#linear-gradient)"/>
  <path id="Caminho_80" data-name="Caminho 80" d="M208.881,1.991,93.346,49.8V80.343L208.881,41.832Z" fill="#fff"/>
  <path id="Caminho_81" data-name="Caminho 81" d="M236.791,63.621c0,4.894-2.39,9.735-5.312,10.816s-5.21-1.958-5.21-6.75,2.319-9.611,5.21-10.778S236.791,58.727,236.791,63.621Z" transform="translate(-119.544 -7.906)" fill="none" stroke="#dbdbdb" stroke-miterlimit="10" stroke-width="0.753"/>
  <path id="Caminho_82" data-name="Caminho 82" d="M196.928,23.239l-70.2,27.323V45.8l70.2-27.922Z" fill="#dbdbdb"/>
  <path id="Caminho_83" data-name="Caminho 83" d="M196.928,35.191l-70.2,27.319V57.756l70.2-27.922Z" fill="#dbdbdb"/>
  <path id="Caminho_84" data-name="Caminho 84" d="M165.453,317.6l-3.558-2.424-5.7-21.59,1.152-1.246s0-6.964-1.623-11.561c1.005-.636,1.634-1.069,1.634-1.069-3.471-3.158-3.471-14.735-3.471-14.735a114.3,114.3,0,0,0-4.412-17.17l5.568,1.382,8.1-17.893v-4.216l3.471-2.1s-4.63-6.317-9.261,0c0,0,1.156,4.209,0,6.317s-4.63,9.472-4.63,9.472h-2.948l.632-3.158h-6.05c-.294-.376-.591-.727-.9-1.054l4.63-9.472-2.168-1.479,7.958-9.035,1.156-18.947c4.6-1.393,5.647-5.56,5.828-8.214a1.928,1.928,0,0,0-2.47-1.833c-9.991,2.33-7.985,6.889-7.985,6.889l-3.478,17.867-4.785,6.855a9.656,9.656,0,0,0-5.929-7.028l2.613-2.97a23,23,0,0,0-11.52.508c-10.371,3.584-10.349,17.317,0,20.92a11.335,11.335,0,0,0,4.57.678V230.23a3.3,3.3,0,0,0,.433-.019c-.177.979-.343,2.086-.429,3.177h0c-2.315,0-2.315,11.58,1.156,13.684l-1.156,11.58v6.317c2.315,5.27,6.946,5.27,6.946,5.27l3.467,14.738a6.544,6.544,0,0,0,4.066.117l.561,4.092s-10.417,7.367-10.417,17.893l-.376.689-.779-.689-6.946,5.27,9.261,10.541h9.261c2.315-5.27-6.946-6.317-6.946-6.317l-.045-5.41,9.385-10.134c1.592,4.235,4.431,11.275,6.776,14.305l-1.058.192v8.421h19.67C180.5,316.544,165.453,317.6,165.453,317.6Z" transform="translate(-119.544 -7.906)" fill="url(#linear-gradient-7)"/>
  <path id="Caminho_85" data-name="Caminho 85" d="M134.7,227.918s-2.3,9.645,0,11.023l6.889-4.141L137,226.074Z" transform="translate(-119.544 -7.906)" fill="#f6b9ad"/>
  <path id="Caminho_86" data-name="Caminho 86" d="M160.1,313.046,154.02,287.7l-6.072,8.109s5.071,16.225,8.113,18.251Z" transform="translate(-119.544 -7.906)" fill="#b98b82"/>
  <path id="Caminho_87" data-name="Caminho 87" d="M164.162,225.84s-4.054-6.084-8.113,0c0,0,1.013,4.054,0,6.084s-4.054,9.125-4.054,9.125h-9.129v5.071l11.154,3.042,7.1-17.238v-4.058Z" transform="translate(-119.544 -7.906)" fill="#f6b9ad"/>
  <path id="Caminho_88" data-name="Caminho 88" d="M30.421,230.1l-2.029,11.154-8.113-2.029V230.1Z" fill="#5989a1"/>
  <circle id="Elipse_31" data-name="Elipse 31" cx="9.125" cy="9.125" r="9.125" transform="translate(5.071 204.751)" fill="#f6b9ad"/>
  <path id="Caminho_89" data-name="Caminho 89" d="M131.711,220.769l8.113-10.142a18.4,18.4,0,0,0-10.093.489c-9.084,3.452-9.069,16.666,0,20.152a9.092,9.092,0,0,0,4,.655V225.84h-3.042Z" transform="translate(-119.544 -7.906)" fill="#3d213c"/>
  <path id="Caminho_90" data-name="Caminho 90" d="M154.02,199.473l-1.013,18.251-8.113,10.142-5.071-3.042,7.1-11.154,3.042-17.238s-1.758-4.393,7-6.637a1.728,1.728,0,0,1,2.165,1.766C158.966,194.116,158.052,198.129,154.02,199.473Z" transform="translate(-119.544 -7.906)" fill="#f6b9ad"/>
  <path id="Caminho_91" data-name="Caminho 91" d="M145.907,279.583l1.013,8.113s-9.137,7.1-9.137,17.234l-1.013,2.029L139.812,310l16.225-19.267s0-11.154-3.042-14.2Z" transform="translate(-119.544 -7.906)" fill="#f6b9ad"/>
  <path id="Caminho_92" data-name="Caminho 92" d="M140.795,308.849l.041,5.21s8.113,1.013,6.084,6.084h-8.109L130.7,310l6.084-5.071Z" transform="translate(-119.544 -7.906)" fill="#6c63ff"/>
  <path id="Caminho_93" data-name="Caminho 93" d="M159.091,312.03l4.054,3.042s13.176-1.013,8.113,6.084H154.02v-8.109Z" transform="translate(-119.544 -7.906)" fill="#6c63ff"/>
  <path id="Caminho_94" data-name="Caminho 94" d="M156.049,278.578s-9.125,7.1-13.176,5.071l-3.042-14.2s-4.054,0-6.084-5.071v-6.095l19.267,6.084S153.007,275.525,156.049,278.578Z" transform="translate(-119.544 -7.906)" fill="#6c63ff"/>
  <path id="Caminho_95" data-name="Caminho 95" d="M147.948,227.866l-8.113-6.084s-4.054,12.167-6.084,12.167-2.029,11.154,1.013,13.176l-1.013,11.154,19.267,6.084s-3.042-20.28-9.125-27.38Z" transform="translate(-119.544 -7.906)" fill="#76b6d7"/>
  <path id="Caminho_96" data-name="Caminho 96" d="M107.083,56.408l2.319-.354,2.319,2.315,2.673-4.992h2.854l-5.526,6.953Z" fill="#47e6b1"/>
  <path id="Caminho_97" data-name="Caminho 97" d="M57.391,215.465l3.693-.568,3.693,3.693,4.258-7.951h4.544l-8.8,11.075Z" fill="#6c63ff"/>
  <path id="Caminho_98" data-name="Caminho 98" d="M57.391,215.465l3.693-.568,3.693,3.693,4.258-7.951h4.544l-8.8,11.075Z" opacity="0.2"/>
</svg>
